<?xml version="1.0" encoding="utf-8"?>
<!-- Generator: Adobe Illustrator 24.1.3, SVG Export Plug-In . SVG Version: 6.00 Build 0)  -->
<svg version="1.1" id="Layer_1" xmlns="http://www.w3.org/2000/svg" xmlns:xlink="http://www.w3.org/1999/xlink" x="0px" y="0px"
	 viewBox="0 0 1366 768" style="enable-background:new 0 0 1366 768;" xml:space="preserve">
<style type="text/css">
	.st0{fill:#1F444D;}
	.st1{fill:url(#XMLID_2_);}
	.st2{fill:url(#XMLID_3_);}
</style>
<g>
	<path class="st0" d="M129.36,412.55v-66.81h21.95c5.22,0,9.51,0.86,12.88,2.58c3.37,1.72,5.87,4.04,7.49,6.97
		c1.62,2.93,2.43,6.24,2.43,9.93c0,3.63-0.8,6.9-2.39,9.83c-1.59,2.93-4.07,5.27-7.44,7.01c-3.37,1.75-7.7,2.62-12.98,2.62h-13.93
		v27.87H129.36z M137.37,377.91h13.74c5.34,0,9.15-1.13,11.4-3.39c2.26-2.26,3.39-5.36,3.39-9.31c0-4.01-1.13-7.14-3.39-9.4
		c-2.26-2.26-6.06-3.39-11.4-3.39h-13.74V377.91z"/>
	<path class="st0" d="M202.26,413.7c-4.45,0-8.46-1.02-12.02-3.05c-3.56-2.04-6.38-4.92-8.45-8.64c-2.07-3.72-3.1-8.1-3.1-13.12
		c0-5.03,1.05-9.4,3.15-13.12s4.95-6.6,8.54-8.64c3.59-2.04,7.62-3.05,12.07-3.05c4.45,0,8.46,1.02,12.03,3.05
		c3.56,2.04,6.38,4.92,8.45,8.64c2.07,3.72,3.1,8.1,3.1,13.12c0,5.03-1.05,9.4-3.15,13.12s-4.95,6.6-8.54,8.64
		C210.74,412.68,206.71,413.7,202.26,413.7z M202.26,406.82c2.73,0,5.28-0.67,7.64-2c2.35-1.34,4.26-3.34,5.73-6.01
		c1.46-2.67,2.2-5.98,2.2-9.92c0-3.94-0.72-7.25-2.15-9.93c-1.43-2.67-3.33-4.68-5.68-6.01c-2.35-1.34-4.87-2-7.54-2
		c-2.74,0-5.28,0.67-7.63,2c-2.35,1.34-4.26,3.34-5.73,6.01c-1.46,2.67-2.19,5.98-2.19,9.93c0,3.95,0.73,7.25,2.19,9.92
		c1.46,2.67,3.36,4.68,5.68,6.01C197.09,406.16,199.59,406.82,202.26,406.82z"/>
	<path class="st0" d="M243.87,412.55l-13.84-47.34h8.02l10.02,37.12l11.07-37.12h9.07l11.17,37.12l9.93-37.12h8.11l-13.84,47.34
		h-8.21l-11.64-39.03l-11.64,39.03H243.87z"/>
	<path class="st0" d="M324.93,413.7c-4.52,0-8.53-1.04-12.02-3.1c-3.5-2.07-6.25-4.95-8.26-8.64c-2-3.69-3.01-8.05-3.01-13.07
		c0-4.96,0.99-9.31,2.96-13.03c1.97-3.72,4.72-6.62,8.26-8.68c3.53-2.07,7.62-3.1,12.26-3.1c4.58,0,8.54,1.03,11.88,3.1
		c3.34,2.07,5.9,4.79,7.68,8.16c1.78,3.37,2.67,7,2.67,10.88c0,0.7-0.02,1.4-0.05,2.1c-0.03,0.7-0.05,1.5-0.05,2.39h-37.7
		c0.19,3.63,1.03,6.63,2.53,9.02c1.49,2.39,3.37,4.18,5.63,5.39c2.26,1.21,4.66,1.81,7.21,1.81c3.31,0,6.08-0.76,8.3-2.29
		c2.23-1.53,3.85-3.59,4.87-6.2h7.92c-1.27,4.39-3.71,8.03-7.3,10.93C335.12,412.25,330.52,413.7,324.93,413.7z M324.93,370.84
		c-3.82,0-7.21,1.16-10.16,3.48c-2.96,2.32-4.66,5.71-5.11,10.16h29.78c-0.19-4.26-1.66-7.6-4.39-10.02
		C332.31,372.05,328.93,370.84,324.93,370.84z"/>
	<path class="st0" d="M357.12,412.55v-47.34h7.25l0.67,9.07c1.46-3.12,3.69-5.6,6.68-7.44c2.99-1.84,6.68-2.77,11.07-2.77v8.4h-2.2
		c-2.8,0-5.38,0.49-7.73,1.48c-2.35,0.99-4.23,2.66-5.63,5.01c-1.4,2.35-2.1,5.6-2.1,9.73v23.86H357.12z"/>
	<path class="st0" d="M410.5,413.7c-4.52,0-8.53-1.04-12.02-3.1c-3.5-2.07-6.25-4.95-8.26-8.64c-2-3.69-3.01-8.05-3.01-13.07
		c0-4.96,0.99-9.31,2.96-13.03c1.97-3.72,4.72-6.62,8.26-8.68c3.53-2.07,7.62-3.1,12.26-3.1c4.58,0,8.54,1.03,11.88,3.1
		c3.34,2.07,5.9,4.79,7.68,8.16c1.78,3.37,2.67,7,2.67,10.88c0,0.7-0.02,1.4-0.05,2.1c-0.03,0.7-0.05,1.5-0.05,2.39h-37.7
		c0.19,3.63,1.03,6.63,2.53,9.02c1.49,2.39,3.37,4.18,5.63,5.39c2.26,1.21,4.66,1.81,7.21,1.81c3.31,0,6.08-0.76,8.3-2.29
		c2.23-1.53,3.85-3.59,4.87-6.2h7.92c-1.27,4.39-3.71,8.03-7.3,10.93C420.7,412.25,416.1,413.7,410.5,413.7z M410.5,370.84
		c-3.82,0-7.21,1.16-10.16,3.48c-2.96,2.32-4.66,5.71-5.11,10.16h29.78c-0.19-4.26-1.66-7.6-4.39-10.02
		C417.88,372.05,414.51,370.84,410.5,370.84z"/>
	<path class="st0" d="M463.92,413.7c-4.71,0-8.83-1.08-12.36-3.25c-3.53-2.16-6.27-5.12-8.21-8.88c-1.94-3.75-2.91-8.02-2.91-12.79
		c0-4.77,0.99-9.02,2.96-12.74c1.97-3.72,4.71-6.65,8.21-8.78c3.5-2.13,7.64-3.2,12.41-3.2c3.88,0,7.32,0.8,10.31,2.39
		c2.99,1.59,5.31,3.82,6.97,6.68v-29.3h8.02v68.71h-7.25l-0.76-7.83c-1.53,2.29-3.72,4.36-6.59,6.2
		C471.84,412.77,468.24,413.7,463.92,413.7z M464.78,406.73c3.18,0,6-0.75,8.45-2.24c2.45-1.49,4.36-3.58,5.73-6.25
		c1.37-2.67,2.05-5.79,2.05-9.35c0-3.56-0.68-6.68-2.05-9.35c-1.37-2.67-3.28-4.76-5.73-6.25c-2.45-1.49-5.27-2.24-8.45-2.24
		c-3.12,0-5.9,0.75-8.35,2.24c-2.45,1.5-4.36,3.58-5.73,6.25c-1.37,2.67-2.05,5.79-2.05,9.35c0,3.56,0.68,6.68,2.05,9.35
		c1.37,2.67,3.28,4.76,5.73,6.25C458.87,405.98,461.66,406.73,464.78,406.73z"/>
	<path class="st0" d="M553.91,413.7c-3.88,0-7.33-0.8-10.35-2.39c-3.02-1.59-5.33-3.82-6.92-6.68l-0.76,7.92h-7.25v-68.71h8.02v29.2
		c1.53-2.29,3.71-4.36,6.54-6.2c2.83-1.84,6.44-2.77,10.83-2.77c4.71,0,8.81,1.08,12.31,3.24c3.5,2.16,6.22,5.12,8.16,8.88
		c1.94,3.75,2.91,8.02,2.91,12.79c0,4.77-0.97,9.02-2.91,12.74c-1.94,3.72-4.68,6.65-8.21,8.78
		C562.74,412.63,558.62,413.7,553.91,413.7z M553.05,406.73c3.18,0,5.98-0.75,8.4-2.24c2.42-1.49,4.33-3.58,5.73-6.25
		c1.4-2.67,2.1-5.79,2.1-9.35c0-3.56-0.7-6.68-2.1-9.35c-1.4-2.67-3.31-4.76-5.73-6.25c-2.42-1.49-5.22-2.24-8.4-2.24
		c-3.18,0-5.98,0.75-8.4,2.24c-2.42,1.5-4.33,3.58-5.73,6.25c-1.4,2.67-2.1,5.79-2.1,9.35c0,3.56,0.7,6.68,2.1,9.35
		c1.4,2.67,3.31,4.76,5.73,6.25C547.07,405.98,549.87,406.73,553.05,406.73z"/>
	<path class="st0" d="M590.06,433.55l11.74-25.58h-2.77l-18.8-42.76h8.69l15.65,36.84l16.61-36.84h8.3l-31.02,68.33H590.06z"/>
</g>
<g>
	<g id="XMLID_139_">
		<linearGradient id="XMLID_2_" gradientUnits="userSpaceOnUse" x1="685.18" y1="369.7969" x2="893.6744" y2="369.7969">
			<stop  offset="0" style="stop-color:#FF615F"/>
			<stop  offset="0.2005" style="stop-color:#FF6462;stop-opacity:0.7995"/>
			<stop  offset="0.3589" style="stop-color:#FF6E6C;stop-opacity:0.6411"/>
			<stop  offset="0.5029" style="stop-color:#FF7E7D;stop-opacity:0.4971"/>
			<stop  offset="0.6383" style="stop-color:#FF9694;stop-opacity:0.3617"/>
			<stop  offset="0.7678" style="stop-color:#FFB4B3;stop-opacity:0.2322"/>
			<stop  offset="0.891" style="stop-color:#FFD8D8;stop-opacity:0.109"/>
			<stop  offset="1" style="stop-color:#FFFFFF;stop-opacity:0"/>
		</linearGradient>
		<path id="XMLID_140_" class="st1" d="M865.38,383.66c0.6,0.31,1.19,0.62,1.78,0.93c9.41-4.92,18.07-9.34,26.51-11.94
			c-5.43-2.32-11.44-5.47-17.89-8.85c-19.71-10.33-44.23-23.18-73.93-23.18c-29.7,0-54.22,12.85-73.93,23.18
			c-13.05,6.84-24.32,12.75-32.63,12.75h-10.12v22.41h10.12c13.83,0,27.36-7.09,43.03-15.3c18.44-9.67,39.34-20.62,63.53-20.62
			S846.94,374,865.38,383.66z"/>
	</g>
	<linearGradient id="XMLID_3_" gradientUnits="userSpaceOnUse" x1="710.037" y1="405.7199" x2="918.53" y2="405.7199">
		<stop  offset="0" style="stop-color:#FFFFFF;stop-opacity:0"/>
		<stop  offset="0.109" style="stop-color:#FFD8D8;stop-opacity:0.109"/>
		<stop  offset="0.2322" style="stop-color:#FFB4B3;stop-opacity:0.2322"/>
		<stop  offset="0.3617" style="stop-color:#FF9694;stop-opacity:0.3617"/>
		<stop  offset="0.4971" style="stop-color:#FF7E7D;stop-opacity:0.4971"/>
		<stop  offset="0.6411" style="stop-color:#FF6E6C;stop-opacity:0.6411"/>
		<stop  offset="0.7995" style="stop-color:#FF6462;stop-opacity:0.7995"/>
		<stop  offset="1" style="stop-color:#FF615F"/>
	</linearGradient>
	<path id="XMLID_138_" class="st2" d="M908.41,376.55c-13.83,0-27.36,7.09-43.03,15.3c-18.44,9.67-39.34,20.62-63.52,20.62
		s-45.08-10.95-63.53-20.62c-0.6-0.31-1.19-0.62-1.78-0.93c-9.41,4.92-18.07,9.34-26.51,11.94c5.43,2.32,11.44,5.47,17.89,8.85
		c19.71,10.33,44.23,23.18,73.93,23.18c29.7,0,54.22-12.85,73.93-23.18c13.05-6.84,24.32-12.75,32.63-12.75h10.12v-22.41H908.41z"/>
</g>
<g>
	<g>
		<path class="st0" d="M990.88,412.49c-4.9,0-8.82-1.19-11.77-3.58c-2.95-2.39-4.43-6.62-4.43-12.72v-20.34h-8.01v-10.08h8.01
			l1.41-12.53h10.64v12.53h12.62v10.08h-12.62v20.44c0,2.26,0.49,3.81,1.46,4.66c0.97,0.85,2.65,1.27,5.04,1.27h5.84v10.27H990.88z"
			/>
		<path class="st0" d="M1017.53,412.49v-46.72h10.74l1.13,8.76c1.7-3.01,4-5.42,6.92-7.21s6.36-2.68,10.31-2.68v12.72h-3.39
			c-2.64,0-4.99,0.41-7.06,1.22c-2.07,0.82-3.69,2.23-4.85,4.24c-1.16,2.01-1.74,4.8-1.74,8.38v21.29H1017.53z"/>
		<path class="st0" d="M1074.25,413.62c-4.02,0-7.32-0.64-9.89-1.93c-2.58-1.29-4.49-3-5.75-5.13c-1.26-2.13-1.88-4.49-1.88-7.06
			c0-4.33,1.7-7.85,5.09-10.55c3.39-2.7,8.48-4.05,15.26-4.05h11.87v-1.13c0-3.2-0.91-5.56-2.73-7.06
			c-1.82-1.51-4.08-2.26-6.78-2.26c-2.45,0-4.58,0.58-6.41,1.74c-1.82,1.16-2.95,2.87-3.39,5.13h-11.77
			c0.31-3.39,1.46-6.34,3.44-8.85c1.98-2.51,4.54-4.44,7.68-5.79c3.14-1.35,6.66-2.02,10.55-2.02c6.66,0,11.9,1.66,15.73,4.99
			c3.83,3.33,5.75,8.04,5.75,14.13v28.73h-10.27l-1.13-7.54c-1.38,2.51-3.31,4.58-5.79,6.22
			C1081.33,412.8,1078.14,413.62,1074.25,413.62z M1076.98,404.2c3.45,0,6.14-1.13,8.05-3.39c1.92-2.26,3.12-5.05,3.63-8.38h-10.27
			c-3.2,0-5.5,0.58-6.88,1.74c-1.38,1.16-2.07,2.59-2.07,4.29c0,1.82,0.69,3.24,2.07,4.24C1072.9,403.7,1074.72,404.2,1076.98,404.2
			z"/>
		<path class="st0" d="M1135.67,413.62c-4.14,0-7.79-0.67-10.93-2.02c-3.14-1.35-5.65-3.22-7.54-5.6c-1.88-2.39-3.01-5.15-3.39-8.29
			h12.15c0.38,1.82,1.4,3.38,3.06,4.66c1.66,1.29,3.81,1.93,6.45,1.93c2.64,0,4.57-0.53,5.79-1.6c1.22-1.07,1.84-2.29,1.84-3.67
			c0-2.01-0.88-3.38-2.64-4.1c-1.76-0.72-4.21-1.43-7.35-2.12c-2.01-0.44-4.05-0.97-6.12-1.6c-2.07-0.63-3.97-1.43-5.7-2.4
			c-1.73-0.97-3.12-2.23-4.19-3.77c-1.07-1.54-1.6-3.44-1.6-5.7c0-4.14,1.65-7.63,4.95-10.46c3.3-2.83,7.93-4.24,13.89-4.24
			c5.52,0,9.94,1.29,13.23,3.86c3.3,2.58,5.26,6.12,5.89,10.64h-11.4c-0.69-3.45-3.3-5.18-7.82-5.18c-2.26,0-4,0.44-5.23,1.32
			c-1.22,0.88-1.84,1.98-1.84,3.3c0,1.38,0.91,2.48,2.73,3.3c1.82,0.82,4.24,1.57,7.25,2.26c3.26,0.75,6.26,1.59,9,2.5
			c2.73,0.91,4.91,2.26,6.55,4.05c1.63,1.79,2.45,4.35,2.45,7.68c0.06,2.89-0.69,5.5-2.26,7.82c-1.57,2.32-3.83,4.14-6.78,5.46
			C1143.17,412.96,1139.69,413.62,1135.67,413.62z"/>
		<path class="st0" d="M1191.16,413.62c-4.71,0-8.89-1-12.53-3.01c-3.64-2.01-6.5-4.83-8.57-8.48s-3.11-7.85-3.11-12.62
			c0-4.83,1.02-9.14,3.06-12.9c2.04-3.77,4.87-6.7,8.48-8.81c3.61-2.1,7.87-3.16,12.76-3.16c4.58,0,8.63,1,12.15,3.01
			c3.52,2.01,6.26,4.76,8.24,8.24c1.98,3.48,2.97,7.36,2.97,11.63c0,0.69-0.02,1.41-0.05,2.17c-0.03,0.75-0.08,1.54-0.14,2.36
			h-35.51c0.25,3.64,1.52,6.5,3.81,8.57c2.29,2.07,5.07,3.11,8.34,3.11c2.45,0,4.5-0.55,6.17-1.65c1.66-1.1,2.9-2.53,3.72-4.29
			h12.25c-0.88,2.95-2.34,5.64-4.38,8.05c-2.04,2.42-4.55,4.32-7.54,5.7C1198.31,412.93,1194.93,413.62,1191.16,413.62z
			 M1191.26,374.44c-2.95,0-5.56,0.83-7.82,2.5c-2.26,1.66-3.71,4.19-4.33,7.58h23.26c-0.19-3.08-1.32-5.52-3.39-7.35
			C1196.91,375.35,1194.33,374.44,1191.26,374.44z"/>
	</g>
</g>
</svg>
