<svg width="55" height="53" viewBox="0 0 55 53" fill="none" xmlns="http://www.w3.org/2000/svg">
<g clip-path="url(#clip0_336_2038)">
<path d="M30.6711 24.3806L30.2134 17.4456" stroke="white" stroke-width="3.5" stroke-linecap="round" stroke-linejoin="round"/>
<path d="M29.0642 28.0675L35.9761 27.6082" stroke="white" stroke-width="3.5" stroke-linecap="round" stroke-linejoin="round"/>
<path d="M36.8328 21.8283C37.4683 21.1 37.3948 19.9926 36.6686 19.3547C35.9425 18.7169 34.8387 18.7902 34.2033 19.5184L36.8328 21.8283ZM20.5391 40.5015L36.8328 21.8283L34.2033 19.5184L17.9095 38.1917L20.5391 40.5015Z" fill="white"/>
<path d="M18.6088 31.9301C17.844 31.1744 17.2536 30.2598 16.879 29.2505C16.5044 28.2413 16.3547 27.1619 16.4405 26.0884C16.5263 25.0149 16.8455 23.9733 17.3756 23.0368C17.9058 22.1004 18.634 21.2919 19.509 20.6681C19.3277 19.523 19.4182 18.3512 19.7732 17.2478C20.1282 16.1444 20.7377 15.1406 21.5521 14.318C22.3665 13.4955 23.3628 12.8773 24.4602 12.5138C25.5575 12.1503 26.7249 12.0518 27.8673 12.2261C28.2243 10.5168 29.1746 8.99019 30.5488 7.91826C31.9229 6.84634 33.6318 6.29873 35.3708 6.37301C37.1099 6.4473 38.7661 7.13864 40.0446 8.32388C41.323 9.50911 42.1405 11.1112 42.3514 12.8448C44.0909 12.8276 45.7801 13.4302 47.1184 14.5454C48.4566 15.6606 49.357 17.216 49.6594 18.9349C49.9618 20.6538 49.6465 22.4245 48.7696 23.932C47.8927 25.4395 46.5112 26.5859 44.8709 27.1672C45.1952 28.2805 45.2529 29.4548 45.0391 30.5947C44.8254 31.7345 44.3464 32.8076 43.6411 33.7266C42.9358 34.6455 42.0241 35.3843 40.9804 35.8828C39.9366 36.3813 38.7902 36.6253 37.6347 36.5951C37.1171 37.5805 36.3836 38.4352 35.4894 39.0953C34.5952 39.7553 33.5636 40.2033 32.472 40.4057C31.3804 40.6082 30.2572 40.5597 29.187 40.264C28.1167 39.9682 27.1272 39.433 26.2928 38.6983L18.9232 32.2226L18.6088 31.9301Z" stroke="white" stroke-width="3.5" stroke-linecap="round" stroke-linejoin="round"/>
<path d="M17.9443 47.8719L17.9443 42.7437" stroke="white" stroke-width="3.5" stroke-linejoin="round"/>
<path d="M11.5555 47.8718H24.3333" stroke="white" stroke-width="3.5" stroke-linejoin="round"/>
</g>
<circle opacity="0.5" cx="17.5" cy="17.5" r="17.5" fill="#FFDCDA"/>
<defs>
<clipPath id="clip0_336_2038">
<rect width="46" height="50" fill="white" transform="translate(9 3)"/>
</clipPath>
</defs>
</svg>
