<svg width="59" height="58" viewBox="0 0 59 58" fill="none" xmlns="http://www.w3.org/2000/svg">
<circle opacity="0.5" cx="17.5" cy="17.5" r="17.5" fill="#FFDCDA"/>
<g clip-path="url(#clip0_336_2039)">
<path d="M29.6841 8.30226C29.2015 9.64196 29.9411 10.751 31.1632 10.5203C32.0298 10.3994 32.3277 9.98401 32.308 9.0641C32.2883 8.1442 31.9729 7.74192 31.1019 7.65833C30.4353 7.57035 29.8275 7.83902 29.6841 8.30226Z" fill="white"/>
<path d="M23.6172 11.5C23.1346 12.8397 23.8742 13.9487 25.0963 13.718C25.9629 13.5972 26.2608 13.1818 26.2411 12.2619C26.2214 11.342 25.906 10.9397 25.035 10.8561C24.3684 10.7681 23.7606 11.0368 23.6172 11.5Z" fill="white"/>
<path d="M35.8826 11.2373C35.4 12.577 36.1395 13.686 37.3617 13.4553C38.2283 13.3345 38.5262 12.9191 38.5065 11.9992C38.4868 11.0793 38.1714 10.677 37.3004 10.5934C36.6338 10.5054 36.026 10.7741 35.8826 11.2373Z" fill="white"/>
<path d="M20.6821 17.6985C20.1995 19.0382 20.9391 20.1472 22.1613 19.9165C23.0279 19.7957 23.3257 19.3802 23.306 18.4603C23.2863 17.5404 22.9709 17.1382 22.0999 17.0546C21.4334 16.9666 20.8256 17.2353 20.6821 17.6985Z" fill="white"/>
<path d="M39.0803 17.3042C38.5977 18.6439 39.3373 19.7529 40.5595 19.5222C41.4261 19.4014 41.7239 18.986 41.7042 18.0661C41.6845 17.1462 41.3691 16.7439 40.4981 16.6603C39.8316 16.5723 39.2238 16.841 39.0803 17.3042Z" fill="white"/>
<path d="M18.5715 24.186C18.0214 24.7602 17.579 25.5877 17.5888 26.0477C17.5976 26.4565 16.505 27.9627 15.1536 29.321C10.5504 34.0213 10.5285 40.1572 15.1211 44.5071C19.5071 48.7591 25.8442 48.6233 30.044 44.1873C34.446 39.6447 34.1613 33.5153 29.361 29.0166C27.9527 27.7174 26.7966 26.2594 26.7878 25.8506C26.7517 24.1641 24.7845 23.0302 22.127 23.0872C20.2361 23.1277 19.3217 23.4029 18.5715 24.186ZM25.8577 30.1653C28.1827 31.2915 30.0338 34.1662 30.0885 36.7215C30.1718 40.6055 26.471 44.4684 22.5869 44.5516C18.7029 44.6348 14.84 40.934 14.7568 37.05C14.7042 34.5969 16.4283 31.5434 18.6018 30.3719C21.0264 28.9906 23.3262 28.9414 25.8577 30.1653Z" fill="white"/>
<path d="M39.2117 23.437C38.7291 24.7767 39.4686 25.8857 40.6908 25.655C41.5574 25.5342 41.8553 25.1188 41.8356 24.1989C41.8159 23.279 41.5005 22.8767 40.6295 22.7931C39.9629 22.7051 39.3551 22.9738 39.2117 23.437Z" fill="white"/>
<path d="M37.101 29.9245C36.3509 30.7075 36.1151 31.6329 36.161 33.7794L36.2224 36.6413L37.738 35.7907C42.2861 33.2902 48.5031 37.0939 48.6192 42.5112C48.6695 44.862 46.7443 48.0733 44.5708 49.2447C40.9818 51.1623 36.8692 50.1255 34.6483 46.6963L33.4834 44.8295L32.3354 46.1323L31.1873 47.4352L32.7621 49.3443C37.0112 54.3662 44.0736 54.6751 48.5735 49.9259C52.9756 45.3833 52.6908 39.2539 47.8906 34.7551C46.4822 33.4559 45.3261 31.998 45.3174 31.5891C45.2812 29.9026 43.314 28.7688 40.6565 28.8257C38.7656 28.8663 37.8512 29.1415 37.101 29.9245Z" fill="white"/>
</g>
<defs>
<clipPath id="clip0_336_2039">
<rect width="49.0728" height="49.0728" fill="white" transform="translate(8 8.05127) rotate(-1.2275)"/>
</clipPath>
</defs>
</svg>
