<svg width="48" height="50" viewBox="0 0 48 50" fill="none" xmlns="http://www.w3.org/2000/svg">
<circle opacity="0.5" cx="17.5" cy="17.5" r="17.5" fill="#FFDCDA"/>
<path d="M27.3195 11.7826C25.938 13.2568 25.6882 13.3106 21.3285 13.3757C17.019 13.44 16.7691 13.4939 15.387 14.918L13.9554 16.3929L14.1814 31.5265L14.4073 46.6602L15.8822 48.0917L17.3571 49.5233L30.9875 49.3198L44.6178 49.1163L46.0493 47.6414L47.4808 46.1664L47.2549 31.0328L47.029 15.8991L45.5541 14.4676C44.13 13.0854 43.8787 13.0391 39.5691 13.1034C35.2094 13.1685 34.9581 13.1221 33.5333 11.6898C32.4652 10.6532 31.5064 10.2164 30.4039 10.2329C29.3015 10.2493 28.3561 10.7145 27.3195 11.7826ZM31.8759 14.8222C32.0442 16.0226 32.2977 16.2193 33.5505 16.2006C34.8534 16.1811 35.006 16.3292 35.0262 17.6822L35.0486 19.1856L30.5386 19.2529L26.0286 19.3202L26.0061 17.8169C25.9859 16.4639 26.134 16.3113 27.487 16.2911C28.7398 16.2724 28.9874 16.0682 28.9732 15.1161C28.9507 13.6128 29.395 13.155 30.7009 13.336C31.3538 13.4265 31.7622 13.9217 31.8759 14.8222ZM23.0219 19.3651L23.0668 22.3718L30.5835 22.2596L38.1002 22.1474L38.0553 19.1407L38.0097 16.0839L40.9184 16.1909L43.777 16.2985L43.9977 31.0814L44.2184 45.8643L30.9388 46.0625L17.6593 46.2608L17.2958 31.9813C17.1282 24.1145 17.0788 17.449 17.2239 17.0959C17.3683 16.6928 18.4169 16.4265 20.2209 16.3996L22.977 16.3584L23.0219 19.3651Z" fill="white"/>
<path d="M34.3703 30.8241L29.2858 36.0626L26.9972 33.8413C24.7092 31.67 24.7092 31.67 23.722 32.6872C22.7347 33.7044 22.7347 33.7044 26.0398 36.8629L29.3457 40.0715L35.5161 33.7141C41.2916 27.7635 41.5863 27.3581 40.8219 26.5175C40.3634 26.0231 39.8563 25.6297 39.706 25.6319C39.5557 25.6342 37.1346 27.976 34.3703 30.8241Z" fill="white"/>
</svg>
