<svg width="366" height="392" viewBox="0 0 366 392" fill="none" xmlns="http://www.w3.org/2000/svg">
<path d="M63.3611 175.254C63.3611 103.779 121.304 45.8359 192.78 45.8359V45.8359C264.256 45.8359 322.198 103.779 322.198 175.254V296.584H63.3611V175.254Z" fill="url(#paint0_linear_322_781)"/>
<path d="M261.533 304.673C261.533 308.396 215.36 311.414 158.403 311.414C101.446 311.414 55.2725 308.396 55.2725 304.673C55.2725 300.95 101.446 297.932 158.403 297.932C215.36 297.932 261.533 300.95 261.533 304.673Z" fill="#DFE5EA"/>
<path d="M315.687 340.841C314.71 341.818 314.71 343.402 315.687 344.379V344.379C316.664 345.356 318.248 345.356 319.225 344.379L343.11 320.495C344.087 319.518 344.087 317.933 343.11 316.956V316.956C342.133 315.979 340.548 315.979 339.571 316.956L315.687 340.841Z" fill="white"/>
<path opacity="0.7" d="M62.7416 331.505C62.7416 335.791 59.2672 339.265 54.9812 339.265C50.6952 339.265 47.2207 335.791 47.2207 331.505C47.2207 327.219 50.6952 323.745 54.9812 323.745C59.2672 323.745 62.7416 327.219 62.7416 331.505Z" fill="#FF6A5F"/>
<path opacity="0.5" d="M269.539 7.76071C269.539 12.0467 266.064 15.5212 261.778 15.5212C257.492 15.5212 254.018 12.0467 254.018 7.76071C254.018 3.47472 257.492 0.000244141 261.778 0.000244141C266.064 0.000244141 269.539 3.47472 269.539 7.76071Z" fill="#E15252"/>
<path d="M289.242 173.112C287.958 173.564 286.64 174.223 285.306 173.957C283.702 173.637 282.6 171.932 282.674 170.297C282.75 168.663 283.811 167.183 285.179 166.286C286.548 165.389 288.192 165.003 289.819 164.825C291.446 164.645 293.088 164.656 294.715 164.471C298.72 164.016 302.578 162.341 305.645 159.726C307.192 158.405 308.536 156.86 310.058 155.51C311.58 154.16 313.344 152.983 315.343 152.609C312.744 155.284 311.209 158.781 309.443 162.066C307.678 165.352 305.481 168.637 302.147 170.31C298.196 172.294 293.411 171.648 289.242 173.112Z" fill="#676754"/>
<path d="M82.6418 253.518C79.726 271.012 83.8567 291.423 86.2864 299.441H95.4887C92.573 291.277 93.3019 262.994 99.4074 253.518V299.441H114.715C112.771 291.18 111.216 269.409 120.547 248.415C129.877 227.422 181.291 239.668 205.832 248.415C209.234 247.2 212.118 248.998 215.034 262.994C217.95 276.99 220.897 292.88 219.682 299.441H232.074C227.409 290.694 230.13 265.181 232.074 253.518C234.504 253.518 240.092 248.853 243.008 230.192C245.924 211.531 257.344 202.006 262.689 199.577C275.81 222.174 299.136 219.258 300.594 209.782C301.76 202.201 292.301 158.027 291.846 155.84C291.392 153.654 279.455 163.13 279.455 163.13C279.455 163.13 281.915 155.112 279.455 150.738C276.994 146.364 273.186 157.298 262.689 163.13C252.192 168.961 236.721 151.467 226.242 155.84C215.763 160.214 214.725 166.629 159.909 163.13C105.093 159.631 87.9873 180.624 86.2864 191.558C96.4914 238.21 86.2864 231.65 82.6418 253.518Z" fill="white"/>
<path d="M283.564 169.783C282.281 170.235 280.963 170.896 279.629 170.629C278.023 170.309 276.922 168.604 276.998 166.969C277.072 165.334 278.133 163.856 279.502 162.957C280.87 162.06 282.514 161.674 284.141 161.496C285.767 161.316 287.412 161.327 289.038 161.142C293.042 160.688 296.9 159.013 299.966 156.398C301.516 155.076 302.858 153.532 304.38 152.182C305.904 150.831 307.665 149.655 309.667 149.28C307.066 151.955 305.531 155.452 303.766 158.738C302.001 162.025 299.802 165.309 296.469 166.983C292.518 168.967 287.735 168.319 283.564 169.783" fill="#676754"/>
<path d="M87.6607 185.727C82.0722 202.978 71.3325 241.126 73.082 255.704C77.9415 247.686 87.6607 222.465 87.6607 185.727Z" fill="white"/>
<path d="M209.203 300.17C202.205 292.006 212.118 257.406 217.95 241.126H201.184C198.852 252.789 194.381 285.348 192.437 300.17H209.203Z" fill="white"/>
<path d="M288.897 181.719C289.339 181.779 289.778 181.871 290.21 182.022L289.572 180.692C286.991 180.252 285.199 180.858 283.493 182.702C284.39 182.317 285.277 182.02 286.148 181.84C285.747 182.168 285.507 182.62 285.547 183.103C285.623 183.983 286.576 184.621 287.679 184.527C288.781 184.433 289.614 183.645 289.54 182.766C289.503 182.342 289.26 181.975 288.897 181.719" fill="#676754"/>
<path d="M300.067 206.242C300.611 206.459 300.89 207.057 301.051 207.62C301.374 208.745 301.43 209.944 301.213 211.093C301.156 211.402 301.074 211.715 300.884 211.963C300.754 212.131 300.58 212.262 300.408 212.389C299.675 212.932 298.944 213.475 298.213 214.018C297.877 214.268 297.523 214.523 297.11 214.587C296.697 214.652 296.211 214.452 296.097 214.051C295.935 213.469 296.575 213.012 296.874 212.488C297.173 211.966 297.128 211.312 296.957 210.735C296.787 210.159 296.501 209.621 296.329 209.045C296.24 208.745 296.183 208.425 296.239 208.118C296.338 207.578 296.772 207.16 297.235 206.866C297.825 206.49 298.503 206.25 299.199 206.17C299.49 206.138 299.794 206.133 300.067 206.242" fill="#676754"/>
<path d="M218.679 296.525H231.8V300.899H218.679V296.525Z" fill="#676754"/>
<path d="M192.437 297.983H208.474V302.357H192.437V297.983Z" fill="#676754"/>
<path d="M99.1333 296.525H115.17V300.899H99.1333V296.525Z" fill="#676754"/>
<path d="M86.0127 296.525H96.2178V300.899H86.0127V296.525Z" fill="#676754"/>
<path fill-rule="evenodd" clip-rule="evenodd" d="M233.224 225.517C236.949 217.647 239.711 210.01 241.104 205.421L245.821 206.854C244.362 211.661 241.514 219.525 237.68 227.627C233.864 235.692 228.978 244.189 223.387 250.109L219.802 246.723C224.86 241.368 229.482 233.424 233.224 225.517Z" fill="#F8EFEF"/>
<path fill-rule="evenodd" clip-rule="evenodd" d="M150.795 224.832C159.445 225.832 167.565 225.995 172.357 225.841L172.516 230.769C167.495 230.93 159.132 230.759 150.229 229.73C141.365 228.706 131.748 226.808 124.347 223.414L126.402 218.932C133.098 222.003 142.105 223.828 150.795 224.832Z" fill="#F8EFEF"/>
<path d="M157.251 333.478C159.62 344.032 165.138 354.976 173.908 364.542L177.014 355.999C198.33 363.71 222.162 361.539 242.027 349.285L232.609 334.121C217.324 343.525 199.226 345.042 183.115 339.222L186.223 330.676C178.048 334.111 167.932 335.35 157.251 333.478" fill="#E37171"/>
<path d="M345.738 127.563C352.941 119.261 358.565 108.151 361.101 95.2072L352.238 97.8215C345.691 75.734 329.549 57.5565 307.549 48.7024L300.828 65.5481C317.732 72.378 329.886 86.2672 334.839 102.949L325.981 105.56C333.72 110.171 340.83 117.699 345.738 127.563Z" fill="#E37171"/>
<path opacity="0.9" d="M77.9817 54.4856C67.0348 52.5555 54.4714 53.4584 41.931 57.9889L48.8073 64.3207C33.0698 81.4897 25.7076 104.956 29.482 128.656L47.5868 125.723C44.716 107.533 50.4005 89.7516 62.3086 76.7504L69.1849 83.0823C69.158 73.9665 71.9805 63.8792 77.9817 54.4856" fill="#E37171"/>
<path d="M208.137 32.2504L208.935 48.0282C209.132 51.9273 208.215 55.8017 206.292 59.199C204.368 62.5963 201.518 65.3762 198.073 67.2137C194.629 69.0513 190.733 69.8707 186.84 69.5762C182.947 69.2817 179.218 67.8856 176.089 65.5508L172.691 69.3944C172.391 69.7333 171.969 69.9393 171.518 69.9671C171.066 69.9948 170.622 69.8421 170.283 69.5425C169.945 69.2428 169.739 68.8208 169.711 68.3693C169.683 67.9178 169.836 67.4738 170.135 67.1349L173.534 63.2912C170.834 60.4717 168.992 56.9421 168.223 53.1148C167.455 49.2875 167.791 45.3205 169.193 41.6772C170.595 38.0339 173.005 34.8647 176.141 32.54C179.277 30.2152 183.01 28.8308 186.903 28.5485L202.657 27.4059C203.337 27.3568 204.019 27.4438 204.665 27.6619C205.31 27.8801 205.905 28.2248 206.416 28.6761C206.926 29.1273 207.341 29.6759 207.637 30.2897C207.932 30.9034 208.102 31.5701 208.137 32.2504V32.2504ZM178.358 62.985C180.98 64.8753 184.083 65.9863 187.31 66.1902C190.536 66.3941 193.754 65.6824 196.593 64.1372C199.433 62.592 201.778 60.2761 203.359 57.4563C204.94 54.6365 205.692 51.4276 205.529 48.199L204.73 32.4212C204.718 32.1947 204.662 31.9728 204.563 31.7685C204.465 31.5642 204.326 31.3816 204.156 31.2314C203.987 31.0811 203.788 30.9663 203.574 30.8936C203.359 30.8209 203.132 30.7917 202.905 30.8079L187.148 31.9482C183.924 32.1817 180.832 33.3212 178.227 35.2355C175.622 37.1498 173.611 39.7611 172.425 42.7684C171.239 45.7758 170.927 49.0569 171.525 52.2339C172.122 55.4108 173.605 58.3543 175.802 60.7254L188.212 46.6899C188.512 46.351 188.934 46.145 189.385 46.1173C189.837 46.0895 190.281 46.2423 190.62 46.5419C190.958 46.8415 191.164 47.2635 191.192 47.715C191.22 48.1665 191.067 48.6106 190.768 48.9495L178.358 62.985V62.985Z" fill="#EFB2B2"/>
<path d="M317.069 238.486L323.66 230.603C325.289 228.656 327.439 227.212 329.859 226.441C332.278 225.669 334.867 225.602 337.322 226.248C339.778 226.893 342 228.224 343.727 230.085C345.455 231.946 346.617 234.26 347.079 236.757L350.399 236.424C350.692 236.395 350.984 236.483 351.212 236.669C351.44 236.856 351.584 237.125 351.614 237.418C351.643 237.71 351.555 238.003 351.368 238.23C351.182 238.458 350.913 238.603 350.62 238.632L347.3 238.964C347.342 241.503 346.661 244.001 345.337 246.168C344.012 248.334 342.099 250.078 339.819 251.197C337.54 252.316 334.99 252.764 332.466 252.487C329.942 252.211 327.549 251.222 325.566 249.636L317.543 243.219C317.197 242.942 316.909 242.599 316.698 242.21C316.486 241.82 316.354 241.393 316.31 240.952C316.266 240.511 316.311 240.066 316.441 239.642C316.571 239.219 316.784 238.826 317.069 238.486V238.486ZM344.862 236.979C344.446 234.918 343.456 233.016 342.007 231.493C340.557 229.97 338.707 228.887 336.669 228.37C334.631 227.852 332.488 227.921 330.488 228.568C328.487 229.215 326.71 230.414 325.361 232.027L318.77 239.91C318.675 240.023 318.604 240.154 318.561 240.295C318.518 240.436 318.503 240.584 318.518 240.731C318.532 240.878 318.576 241.02 318.647 241.15C318.717 241.279 318.813 241.394 318.928 241.486L326.951 247.905C328.593 249.219 330.572 250.042 332.662 250.279C334.751 250.517 336.864 250.159 338.759 249.248C340.654 248.337 342.253 246.909 343.372 245.129C344.491 243.349 345.084 241.289 345.083 239.186L332.958 240.4C332.666 240.429 332.373 240.341 332.146 240.155C331.918 239.969 331.773 239.7 331.744 239.407C331.715 239.114 331.803 238.822 331.989 238.594C332.176 238.366 332.445 238.222 332.737 238.192L344.862 236.979V236.979Z" fill="#EFB2B2"/>
<path d="M29.4695 195.983L41.3701 199.763C44.3109 200.698 46.9249 202.45 48.9069 204.815C50.8889 207.18 52.157 210.06 52.563 213.119C52.969 216.177 52.4962 219.289 51.1998 222.089C49.9034 224.889 47.8369 227.262 45.2418 228.931L47.1456 232.512C47.3134 232.827 47.349 233.197 47.2445 233.539C47.1399 233.881 46.9039 234.167 46.5882 234.335C46.2725 234.503 45.903 234.538 45.5611 234.434C45.2192 234.329 44.9328 234.093 44.7649 233.778L42.8612 230.197C40.0261 231.415 36.9031 231.8 33.857 231.309C30.8109 230.818 27.9675 229.47 25.659 227.423C23.3505 225.375 21.6721 222.714 20.82 219.748C19.9679 216.783 19.9772 213.636 20.8469 210.676L24.3655 198.697C24.5173 198.181 24.7708 197.7 25.1111 197.282C25.4513 196.865 25.8714 196.52 26.3468 196.267C26.8222 196.014 27.3433 195.859 27.8796 195.81C28.4158 195.762 28.9563 195.82 29.4695 195.983V195.983ZM43.9709 226.541C46.0967 225.124 47.7788 223.135 48.8234 220.803C49.8681 218.471 50.2328 215.892 49.8756 213.362C49.5184 210.832 48.4538 208.454 46.8044 206.503C45.155 204.552 42.9879 203.106 40.5528 202.332L28.6522 198.552C28.4813 198.498 28.3013 198.479 28.1228 198.495C27.9442 198.511 27.7708 198.563 27.6125 198.647C27.4542 198.732 27.3143 198.846 27.201 198.985C27.0876 199.124 27.0031 199.284 26.9524 199.456L23.4314 211.436C22.711 213.887 22.6978 216.492 23.3932 218.951C24.0886 221.41 25.4644 223.622 27.3621 225.333C29.2598 227.043 31.6022 228.183 34.1194 228.621C36.6367 229.059 39.2264 228.777 41.5903 227.807L34.6385 214.733C34.4706 214.417 34.435 214.048 34.5396 213.706C34.6441 213.364 34.8802 213.077 35.1959 212.909C35.5116 212.742 35.881 212.706 36.2229 212.811C36.5648 212.915 36.8512 213.151 37.0191 213.467L43.9709 226.541V226.541Z" fill="#EFB2B2"/>
<defs>
<linearGradient id="paint0_linear_322_781" x1="192.78" y1="45.8359" x2="192.78" y2="296.584" gradientUnits="userSpaceOnUse">
<stop stop-color="#FFCCC8"/>
<stop offset="1" stop-color="#EBEDEF" stop-opacity="0"/>
</linearGradient>
</defs>
</svg>
