<svg width="56" height="83" viewBox="0 0 56 83" fill="none" xmlns="http://www.w3.org/2000/svg">
<path fill-rule="evenodd" clip-rule="evenodd" d="M38.704 32.8086C39.3934 32.7815 40.0896 32.7452 40.6982 32.5869C41.1162 32.478 41.5938 32.2805 42.0825 32.0781C43.2796 31.5831 44.5326 31.0647 45.8536 31.3404C46.3517 31.4443 46.8423 31.6213 47.3005 31.8576C47.76 32.0953 48.1891 32.3927 48.5618 32.7368L48.5601 32.7387C48.7059 32.8724 48.836 33.009 48.9559 33.1471C49.0724 33.2811 49.1837 33.4196 49.2925 33.5603C49.3314 33.6114 49.431 33.7441 49.5282 33.8732C49.8232 34.2669 50.1209 34.6632 50.4389 34.9081C50.5803 35.0167 50.6932 35.1449 50.7771 35.2916C50.863 35.4418 50.9176 35.6055 50.9396 35.7815C50.9604 35.9505 50.9479 36.1203 50.9007 36.2895C50.8538 36.4581 50.7767 36.6119 50.6691 36.7485C50.1951 37.352 49.6346 37.9488 49.0195 38.4827C48.4474 38.9796 47.8289 39.4194 47.191 39.7572C46.3573 40.1978 45.4742 40.3586 44.5996 40.3075C43.6549 40.2527 42.7281 39.9511 41.8929 39.4922C41.5749 39.3166 41.2642 39.1394 40.953 38.9462L40.9762 39.129C41.0367 39.6382 41.0681 40.1521 41.0681 40.6678C41.0681 42.7207 40.5703 44.7233 39.6553 46.5172C38.8041 48.1852 37.5874 49.6749 36.0703 50.8576L36.1069 50.8288C36.1303 50.9286 36.1518 51.0292 36.1714 51.1305C36.2519 51.3593 36.3238 51.5921 36.3864 51.8284C36.5073 52.2859 36.5914 52.7591 36.6388 53.2502L36.6589 53.4574C37.0905 57.8985 37.4109 61.1982 30.3438 62.4425C30.0848 62.4879 29.762 62.5218 29.4039 62.5447C29.0608 62.5663 28.6604 62.5767 28.2408 62.5771C27.8017 62.5774 27.3745 62.566 26.9999 62.5447C26.5944 62.521 26.2329 62.4879 25.9561 62.4461C18.8512 61.3756 19.1866 57.9189 19.6206 53.4409L19.6429 53.2105C19.6886 52.7397 19.7723 52.2769 19.8917 51.826C19.9783 51.4995 20.083 51.1784 20.2053 50.8636C18.6868 49.68 17.4686 48.1893 16.6168 46.5196C15.7011 44.7257 15.2029 42.7224 15.2029 40.6678C15.2029 40.1796 15.2317 39.689 15.2878 39.1972L15.3074 39.0311C15.048 39.1883 14.7803 39.3401 14.5039 39.4922C13.669 39.9511 12.7419 40.2527 11.7974 40.3075C10.9224 40.3586 10.0393 40.1978 9.20581 39.7572C8.56721 39.4192 7.94893 38.9793 7.3761 38.482C6.76749 37.9534 6.20651 37.3554 5.72775 36.7446C5.61894 36.6061 5.54204 36.454 5.49634 36.2895C5.44943 36.12 5.43638 35.9503 5.45766 35.7815C5.47966 35.605 5.53407 35.4415 5.61966 35.2916C5.70139 35.1492 5.81455 35.0213 5.95915 34.9098L5.95794 34.9081C6.2764 34.663 6.57478 34.2652 6.8705 33.8706C6.96674 33.7427 7.06273 33.6145 7.10408 33.5603C7.21313 33.4196 7.32436 33.2808 7.44066 33.1471C7.56954 32.9986 7.70036 32.8598 7.83432 32.7368C8.2079 32.3924 8.63709 32.0948 9.097 31.8573C9.55473 31.6213 10.0456 31.4443 10.5432 31.3406C11.8637 31.0647 13.1169 31.5831 14.3151 32.0783C14.8035 32.2805 15.2813 32.478 15.6989 32.5869C16.2601 32.7329 16.8963 32.7752 17.5329 32.8021C16.2081 31.8992 14.2648 30.1094 13.3691 27.0013C12.7158 24.7349 12.6227 21.7728 13.7567 17.9606C13.846 17.6586 14.0355 17.4105 14.2822 17.2451C14.5269 17.0809 14.8262 17.0001 15.1374 17.0311C15.4522 17.0618 15.732 17.202 15.9402 17.4136C16.1498 17.6266 16.286 17.9083 16.3121 18.2217C16.4734 20.1665 17.0694 23.1172 19.0826 25.2678L19.0843 25.2661C22.4427 28.8515 33.8032 28.8559 37.1611 25.2637C39.1741 23.1104 39.7701 20.1639 39.9307 18.222C39.9573 17.9086 40.0934 17.6269 40.3028 17.4139C40.5108 17.2023 40.7908 17.0623 41.1056 17.0311C41.4168 17.0001 41.7161 17.0809 41.9611 17.2453C42.2075 17.4107 42.3968 17.6588 42.4863 17.9611C43.6196 21.7714 43.5297 24.7295 42.8802 26.9913C41.9841 30.1118 40.0308 31.9064 38.704 32.8086ZM28.8374 60.7247C28.6374 60.7317 28.4372 60.7349 28.2408 60.7351C28.0281 60.7351 27.809 60.7317 27.5906 60.7245C27.1984 60.3896 26.7784 60.0699 26.3321 59.7677C24.9386 58.8229 23.295 58.0465 21.4738 57.4863C21.3974 57.1932 21.35 56.8849 21.3251 56.5626C23.3852 57.155 25.2428 58.0122 26.8045 59.0708C27.5527 59.5778 28.2333 60.1316 28.8374 60.7247ZM33.0299 59.6545C32.8005 59.7853 32.5454 59.9074 32.262 60.0206C31.4416 58.7499 30.2749 57.6019 28.8417 56.6308C26.8261 55.2644 24.2876 54.2495 21.4441 53.7326L21.4554 53.6141L21.4777 53.3839C21.4936 53.2209 21.5159 53.0575 21.5444 52.8933C24.5248 53.4298 27.1922 54.4954 29.3139 55.9339C30.8757 56.9923 32.144 58.2528 33.0299 59.6545ZM29.6271 54.8037C29.9148 54.9783 30.1956 55.1611 30.4698 55.3521C31.9537 54.715 33.4417 54.2711 34.8843 54.0225L34.8737 53.9113L34.8536 53.7038C34.8369 53.5302 34.8135 53.3573 34.784 53.1856C33.0976 53.4719 31.3545 54.0123 29.6271 54.8037ZM27.5923 53.7505C27.9267 53.8929 28.1429 53.9968 28.4645 54.1589C30.53 53.1839 32.6191 52.5867 34.5951 52.3768C34.5139 52.1038 34.415 51.833 34.2979 51.5631C32.0913 51.8255 29.8735 52.591 27.5923 53.7505ZM31.4471 56.0887C31.6986 56.2937 31.9428 56.5055 32.18 56.7244C33.1378 56.4003 34.09 56.1576 35.0233 55.9963C35.019 55.7223 35.0042 55.4397 34.9837 55.1495C33.8243 55.3422 32.6375 55.6561 31.4471 56.0887ZM33.0263 57.5682C33.1978 57.7532 34.3664 59.0766 34.3966 59.0701C34.4592 59.0573 34.9271 57.4079 34.9617 57.1618C34.3241 57.2607 33.6775 57.3963 33.0263 57.5682ZM24.8863 60.348C23.4907 59.9826 22.6141 59.4359 22.0776 58.7439C23.3042 58.9233 24.3319 59.5276 24.8863 60.348ZM31.2612 60.3506C30.9763 60.4283 30.6707 60.4989 30.3431 60.5629C29.6283 59.7282 28.7554 58.9615 27.7519 58.2816C25.9643 57.0701 23.7656 56.1346 21.3067 55.578C21.3149 55.3011 21.3321 55.0163 21.3548 54.7242C23.9723 55.3014 26.3183 56.293 28.2244 57.5849C29.4228 58.3969 30.448 59.3281 31.2612 60.3506ZM34.1057 50.6711C31.369 50.8653 28.833 51.8388 26.645 53.1099C25.1122 52.5458 23.4629 52.1879 21.7391 52.0736C21.8244 51.7907 21.9294 51.5073 22.0541 51.2256L22.0507 51.2241L22.0539 51.2178L22.0551 51.2186C22.182 50.9335 22.2014 50.6278 22.1264 50.3488C22.0503 50.0659 21.8805 49.8103 21.63 49.629H21.6261L21.616 49.6215C20.1906 48.5808 19.05 47.2226 18.2637 45.6818C17.4793 44.1444 17.0522 42.4279 17.0522 40.6678C17.0522 40.2314 17.0759 39.8097 17.1224 39.4035C17.1712 38.9769 17.2428 38.5615 17.3364 38.1584C17.399 37.8883 17.3746 37.6173 17.2759 37.3743C17.176 37.1288 17.0027 36.9163 16.7688 36.7666C16.535 36.6172 16.2705 36.549 16.0067 36.5608C15.7422 36.5727 15.4839 36.6641 15.2653 36.8336C15.0289 37.0171 14.7709 37.1919 14.4954 37.3636C14.2159 37.5375 13.9221 37.7053 13.6155 37.8743C13.0069 38.2087 12.3475 38.4275 11.6961 38.4657C11.1397 38.4982 10.5833 38.3985 10.0652 38.1246C9.55449 37.8545 9.05275 37.4964 8.58245 37.088C8.19363 36.7504 7.82876 36.3807 7.49942 35.9994C7.81401 35.6826 8.07999 35.3281 8.34403 34.9758C8.39844 34.9031 8.45308 34.8305 8.56334 34.6874C8.65354 34.5711 8.74373 34.4579 8.83465 34.3532C8.91275 34.2635 8.99496 34.1764 9.08394 34.095C9.33783 33.8609 9.62993 33.6583 9.94209 33.4972C10.2547 33.336 10.5862 33.2158 10.919 33.1464C11.6869 32.9858 12.6725 33.3933 13.6143 33.783C14.1603 34.0089 14.6944 34.2299 15.2368 34.3711C16.0846 34.5919 16.9468 34.6247 17.7902 34.6567L18.0782 34.668C18.297 34.677 18.5069 34.6332 18.6977 34.5416C18.8887 34.4494 19.0539 34.3126 19.1835 34.1358C19.255 34.0374 19.3191 33.9521 19.3747 33.8807C19.4473 33.7871 19.513 33.7047 19.5713 33.6336C19.6971 33.4808 19.7843 33.3106 19.8313 33.1273L19.8322 33.1275C19.8789 32.944 19.8842 32.753 19.8467 32.559C19.81 32.369 19.7331 32.1937 19.6187 32.037C19.5039 31.8793 19.3605 31.7524 19.1924 31.66H19.1888C18.2216 31.1307 16.0422 29.6304 15.1386 26.4961C14.7271 25.0673 14.5791 23.2969 14.9208 21.1178C15.3722 22.9122 16.2086 24.8908 17.7409 26.5266V26.5302C21.7195 30.7782 34.0598 31.2828 38.512 26.5203C40.0378 24.8884 40.8715 22.9136 41.322 21.1216C41.661 23.2918 41.5133 25.0581 41.1034 26.486C40.2063 29.6098 38.0442 31.1128 37.0687 31.6499C36.8956 31.7456 36.7513 31.8726 36.6393 32.0273C36.5283 32.1801 36.4524 32.3567 36.4151 32.5528C36.3794 32.7409 36.3854 32.93 36.433 33.1166L36.4299 33.1174C36.4761 33.2987 36.5636 33.4689 36.6908 33.6235C36.7191 33.6575 36.7868 33.7441 36.8934 33.881C36.9817 33.9949 37.0472 34.0807 37.0912 34.1409C37.2194 34.3165 37.3862 34.4533 37.5809 34.5469C37.7736 34.6393 37.9837 34.683 38.2016 34.6731C38.3827 34.6654 38.492 34.661 38.6047 34.6567C39.4485 34.6247 40.3115 34.5919 41.1605 34.3711C41.7028 34.2296 42.2367 34.0089 42.783 33.783C43.7245 33.3933 44.7101 32.9858 45.4778 33.1461C45.8103 33.2155 46.1421 33.3357 46.455 33.4975C46.7671 33.6588 47.0585 33.8607 47.3121 34.095H47.3155C47.3927 34.1653 47.4754 34.2538 47.5622 34.3532C47.6528 34.4579 47.743 34.5711 47.8335 34.6874C47.9473 34.8354 47.9996 34.905 48.0547 34.9785C48.318 35.3294 48.5826 35.6824 48.8959 35.9979C48.5637 36.3836 48.1986 36.754 47.8134 37.0887C47.3433 37.4969 46.8418 37.8545 46.3314 38.1246C45.813 38.3985 45.2568 38.4982 44.7007 38.4657C44.0493 38.4275 43.3901 38.2087 42.7813 37.8743C42.4372 37.6845 42.1142 37.4998 41.8237 37.3162C41.5341 37.1327 41.2594 36.9407 41.0016 36.7306C40.783 36.5524 40.5229 36.4542 40.2554 36.438C39.9899 36.4221 39.7211 36.4881 39.4824 36.6385C39.2423 36.7898 39.0655 37.0048 38.9659 37.2514C38.866 37.4976 38.8431 37.7744 38.91 38.0496C39.0102 38.4612 39.0878 38.8937 39.1417 39.3459C39.1927 39.7749 39.2188 40.2159 39.2188 40.6678C39.2188 42.4264 38.7923 44.1423 38.0081 45.6791C37.2216 47.2209 36.0807 48.58 34.6546 49.6203H34.651L34.6396 49.6285C34.3913 49.8106 34.2235 50.0659 34.1483 50.3481C34.1064 50.5052 34.0849 50.5055 34.1057 50.6711Z" fill="#587077"/>
<path fill-rule="evenodd" clip-rule="evenodd" d="M38.704 32.8086C39.3934 32.7815 40.0896 32.7452 40.6982 32.5869C41.1162 32.478 41.5938 32.2805 42.0825 32.0781C43.2796 31.5831 44.5326 31.0647 45.8536 31.3404C46.3517 31.4443 46.8423 31.6213 47.3005 31.8576C47.76 32.0953 48.1891 32.3927 48.5618 32.7368L48.5601 32.7387C48.7059 32.8724 48.836 33.009 48.9559 33.1471C49.0724 33.2811 49.1837 33.4196 49.2925 33.5603C49.3314 33.6114 49.431 33.7441 49.5282 33.8732C49.8232 34.2669 50.1209 34.6632 50.4389 34.9081C50.5803 35.0167 50.6932 35.1449 50.7771 35.2916C50.863 35.4418 50.9176 35.6055 50.9396 35.7815C50.9604 35.9505 50.9479 36.1203 50.9007 36.2895C50.8538 36.4581 50.7767 36.6119 50.6691 36.7485C50.1951 37.352 49.6346 37.9488 49.0195 38.4827C48.4474 38.9796 47.8289 39.4194 47.191 39.7572C46.3573 40.1978 45.4742 40.3586 44.5996 40.3075C43.6549 40.2527 42.7281 39.9511 41.8929 39.4922C41.5749 39.3166 41.2642 39.1394 40.953 38.9462L40.9762 39.129C41.0367 39.6382 41.0681 40.1521 41.0681 40.6678C41.0681 42.7207 40.5703 44.7233 39.6553 46.5172C38.8041 48.1852 37.5874 49.6749 36.0703 50.8576L36.1069 50.8288C36.1303 50.9286 36.1518 51.0292 36.1714 51.1305C36.2519 51.3593 36.3238 51.5921 36.3864 51.8284C36.5073 52.2859 36.5914 52.7591 36.6388 53.2502L36.6589 53.4574C37.0905 57.8985 37.4109 61.1982 30.3438 62.4425C30.0848 62.4879 29.762 62.5218 29.4039 62.5447C29.0608 62.5663 28.6604 62.5767 28.2408 62.5771C27.8017 62.5774 27.3745 62.566 26.9999 62.5447C26.5944 62.521 26.2329 62.4879 25.9561 62.4461C18.8512 61.3756 19.1866 57.9189 19.6206 53.4409L19.6429 53.2105C19.6886 52.7397 19.7723 52.2769 19.8917 51.826C19.9783 51.4995 20.083 51.1784 20.2053 50.8636C18.6868 49.68 17.4686 48.1893 16.6168 46.5196C15.7011 44.7257 15.2029 42.7224 15.2029 40.6678C15.2029 40.1796 15.2317 39.689 15.2878 39.1972L15.3074 39.0311C15.048 39.1883 14.7803 39.3401 14.5039 39.4922C13.669 39.9511 12.7419 40.2527 11.7974 40.3075C10.9224 40.3586 10.0393 40.1978 9.20581 39.7572C8.56721 39.4192 7.94893 38.9793 7.3761 38.482C6.76749 37.9534 6.20651 37.3554 5.72775 36.7446C5.61894 36.6061 5.54204 36.454 5.49634 36.2895C5.44943 36.12 5.43638 35.9503 5.45766 35.7815C5.47966 35.605 5.53407 35.4415 5.61966 35.2916C5.70139 35.1492 5.81455 35.0213 5.95915 34.9098L5.95794 34.9081C6.2764 34.663 6.57478 34.2652 6.8705 33.8706C6.96674 33.7427 7.06273 33.6145 7.10408 33.5603C7.21313 33.4196 7.32436 33.2808 7.44066 33.1471C7.56954 32.9986 7.70036 32.8598 7.83432 32.7368C8.2079 32.3924 8.63709 32.0948 9.097 31.8573C9.55473 31.6213 10.0456 31.4443 10.5432 31.3406C11.8637 31.0647 13.1169 31.5831 14.3151 32.0783C14.8035 32.2805 15.2813 32.478 15.6989 32.5869C16.2601 32.7329 16.8963 32.7752 17.5329 32.8021C16.2081 31.8992 14.2648 30.1094 13.3691 27.0013C12.7158 24.7349 12.6227 21.7728 13.7567 17.9606C13.846 17.6586 14.0355 17.4105 14.2822 17.2451C14.5269 17.0809 14.8262 17.0001 15.1374 17.0311C15.4522 17.0618 15.732 17.202 15.9402 17.4136C16.1498 17.6266 16.286 17.9083 16.3121 18.2217C16.4734 20.1665 17.0694 23.1172 19.0826 25.2678L19.0843 25.2661C22.4427 28.8515 33.8032 28.8559 37.1611 25.2637C39.1741 23.1104 39.7701 20.1639 39.9307 18.222C39.9573 17.9086 40.0934 17.6269 40.3028 17.4139C40.5108 17.2023 40.7908 17.0623 41.1056 17.0311C41.4168 17.0001 41.7161 17.0809 41.9611 17.2453C42.2075 17.4107 42.3968 17.6588 42.4863 17.9611C43.6196 21.7714 43.5297 24.7295 42.8802 26.9913C41.9841 30.1118 40.0308 31.9064 38.704 32.8086ZM28.8374 60.7247C28.6374 60.7317 28.4372 60.7349 28.2408 60.7351C28.0281 60.7351 27.809 60.7317 27.5906 60.7245C27.1984 60.3896 26.7784 60.0699 26.3321 59.7677C24.9386 58.8229 23.295 58.0465 21.4738 57.4863C21.3974 57.1932 21.35 56.8849 21.3251 56.5626C23.3852 57.155 25.2428 58.0122 26.8045 59.0708C27.5527 59.5778 28.2333 60.1316 28.8374 60.7247ZM33.0299 59.6545C32.8005 59.7853 32.5454 59.9074 32.262 60.0206C31.4416 58.7499 30.2749 57.6019 28.8417 56.6308C26.8261 55.2644 24.2876 54.2495 21.4441 53.7326L21.4554 53.6141L21.4777 53.3839C21.4936 53.2209 21.5159 53.0575 21.5444 52.8933C24.5248 53.4298 27.1922 54.4954 29.3139 55.9339C30.8757 56.9923 32.144 58.2528 33.0299 59.6545ZM29.6271 54.8037C29.9148 54.9783 30.1956 55.1611 30.4698 55.3521C31.9537 54.715 33.4417 54.2711 34.8843 54.0225L34.8737 53.9113L34.8536 53.7038C34.8369 53.5302 34.8135 53.3573 34.784 53.1856C33.0976 53.4719 31.3545 54.0123 29.6271 54.8037ZM27.5923 53.7505C27.9267 53.8929 28.1429 53.9968 28.4645 54.1589C30.53 53.1839 32.6191 52.5867 34.5951 52.3768C34.5139 52.1038 34.415 51.833 34.2979 51.5631C32.0913 51.8255 29.8735 52.591 27.5923 53.7505ZM31.4471 56.0887C31.6986 56.2937 31.9428 56.5055 32.18 56.7244C33.1378 56.4003 34.09 56.1576 35.0233 55.9963C35.019 55.7223 35.0042 55.4397 34.9837 55.1495C33.8243 55.3422 32.6375 55.6561 31.4471 56.0887ZM33.0263 57.5682C33.1978 57.7532 34.3664 59.0766 34.3966 59.0701C34.4592 59.0573 34.9271 57.4079 34.9617 57.1618C34.3241 57.2607 33.6775 57.3963 33.0263 57.5682ZM24.8863 60.348C23.4907 59.9826 22.6141 59.4359 22.0776 58.7439C23.3042 58.9233 24.3319 59.5276 24.8863 60.348ZM31.2612 60.3506C30.9763 60.4283 30.6707 60.4989 30.3431 60.5629C29.6283 59.7282 28.7554 58.9615 27.7519 58.2816C25.9643 57.0701 23.7656 56.1346 21.3067 55.578C21.3149 55.3011 21.3321 55.0163 21.3548 54.7242C23.9723 55.3014 26.3183 56.293 28.2244 57.5849C29.4228 58.3969 30.448 59.3281 31.2612 60.3506ZM34.1057 50.6711C31.369 50.8653 28.833 51.8388 26.645 53.1099C25.1122 52.5458 23.4629 52.1879 21.7391 52.0736C21.8244 51.7907 21.9294 51.5073 22.0541 51.2256L22.0507 51.2241L22.0539 51.2178L22.0551 51.2186C22.182 50.9335 22.2014 50.6278 22.1264 50.3488C22.0503 50.0659 21.8805 49.8103 21.63 49.629H21.6261L21.616 49.6215C20.1906 48.5808 19.05 47.2226 18.2637 45.6818C17.4793 44.1444 17.0522 42.4279 17.0522 40.6678C17.0522 40.2314 17.0759 39.8097 17.1224 39.4035C17.1712 38.9769 17.2428 38.5615 17.3364 38.1584C17.399 37.8883 17.3746 37.6173 17.2759 37.3743C17.176 37.1288 17.0027 36.9163 16.7688 36.7666C16.535 36.6172 16.2705 36.549 16.0067 36.5608C15.7422 36.5727 15.4839 36.6641 15.2653 36.8336C15.0289 37.0171 14.7709 37.1919 14.4954 37.3636C14.2159 37.5375 13.9221 37.7053 13.6155 37.8743C13.0069 38.2087 12.3475 38.4275 11.6961 38.4657C11.1397 38.4982 10.5833 38.3985 10.0652 38.1246C9.55449 37.8545 9.05275 37.4964 8.58245 37.088C8.19363 36.7504 7.82876 36.3807 7.49942 35.9994C7.81401 35.6826 8.07999 35.3281 8.34403 34.9758C8.39844 34.9031 8.45308 34.8305 8.56334 34.6874C8.65354 34.5711 8.74373 34.4579 8.83465 34.3532C8.91275 34.2635 8.99496 34.1764 9.08394 34.095C9.33783 33.8609 9.62993 33.6583 9.94209 33.4972C10.2547 33.336 10.5862 33.2158 10.919 33.1464C11.6869 32.9858 12.6725 33.3933 13.6143 33.783C14.1603 34.0089 14.6944 34.2299 15.2368 34.3711C16.0846 34.5919 16.9468 34.6247 17.7902 34.6567L18.0782 34.668C18.297 34.677 18.5069 34.6332 18.6977 34.5416C18.8887 34.4494 19.0539 34.3126 19.1835 34.1358C19.255 34.0374 19.3191 33.9521 19.3747 33.8807C19.4473 33.7871 19.513 33.7047 19.5713 33.6336C19.6971 33.4808 19.7843 33.3106 19.8313 33.1273L19.8322 33.1275C19.8789 32.944 19.8842 32.753 19.8467 32.559C19.81 32.369 19.7331 32.1937 19.6187 32.037C19.5039 31.8793 19.3605 31.7524 19.1924 31.66H19.1888C18.2216 31.1307 16.0422 29.6304 15.1386 26.4961C14.7271 25.0673 14.5791 23.2969 14.9208 21.1178C15.3722 22.9122 16.2086 24.8908 17.7409 26.5266V26.5302C21.7195 30.7782 34.0598 31.2828 38.512 26.5203C40.0378 24.8884 40.8715 22.9136 41.322 21.1216C41.661 23.2918 41.5133 25.0581 41.1034 26.486C40.2063 29.6098 38.0442 31.1128 37.0687 31.6499C36.8956 31.7456 36.7513 31.8726 36.6393 32.0273C36.5283 32.1801 36.4524 32.3567 36.4151 32.5528C36.3794 32.7409 36.3854 32.93 36.433 33.1166L36.4299 33.1174C36.4761 33.2987 36.5636 33.4689 36.6908 33.6235C36.7191 33.6575 36.7868 33.7441 36.8934 33.881C36.9817 33.9949 37.0472 34.0807 37.0912 34.1409C37.2194 34.3165 37.3862 34.4533 37.5809 34.5469C37.7736 34.6393 37.9837 34.683 38.2016 34.6731C38.3827 34.6654 38.492 34.661 38.6047 34.6567C39.4485 34.6247 40.3115 34.5919 41.1605 34.3711C41.7028 34.2296 42.2367 34.0089 42.783 33.783C43.7245 33.3933 44.7101 32.9858 45.4778 33.1461C45.8103 33.2155 46.1421 33.3357 46.455 33.4975C46.7671 33.6588 47.0585 33.8607 47.3121 34.095H47.3155C47.3927 34.1653 47.4754 34.2538 47.5622 34.3532C47.6528 34.4579 47.743 34.5711 47.8335 34.6874C47.9473 34.8354 47.9996 34.905 48.0547 34.9785C48.318 35.3294 48.5826 35.6824 48.8959 35.9979C48.5637 36.3836 48.1986 36.754 47.8134 37.0887C47.3433 37.4969 46.8418 37.8545 46.3314 38.1246C45.813 38.3985 45.2568 38.4982 44.7007 38.4657C44.0493 38.4275 43.3901 38.2087 42.7813 37.8743C42.4372 37.6845 42.1142 37.4998 41.8237 37.3162C41.5341 37.1327 41.2594 36.9407 41.0016 36.7306C40.783 36.5524 40.5229 36.4542 40.2554 36.438C39.9899 36.4221 39.7211 36.4881 39.4824 36.6385C39.2423 36.7898 39.0655 37.0048 38.9659 37.2514C38.866 37.4976 38.8431 37.7744 38.91 38.0496C39.0102 38.4612 39.0878 38.8937 39.1417 39.3459C39.1927 39.7749 39.2188 40.2159 39.2188 40.6678C39.2188 42.4264 38.7923 44.1423 38.0081 45.6791C37.2216 47.2209 36.0807 48.58 34.6546 49.6203H34.651L34.6396 49.6285C34.3913 49.8106 34.2235 50.0659 34.1483 50.3481C34.1064 50.5052 34.0849 50.5055 34.1057 50.6711Z" fill="#587077"/>
<path d="M25.8766 60.606C19.6118 60.0612 20.7695 54.0234 22.1314 51.0726L34.048 50.3916C35.6823 55.5669 34.956 58.2226 34.3885 58.9036C34.1616 59.698 32.1415 61.1507 25.8766 60.606Z" fill="#E8F0ED"/>
<path d="M35.571 39.6963C35.571 38.1706 34.3311 36.9307 32.8054 36.9307C31.2797 36.9307 30.0398 38.1706 30.0398 39.6963C30.0398 41.7705 32.8054 44.7665 32.8054 44.7665C32.8054 44.7665 35.571 41.7705 35.571 39.6963ZM31.8835 39.6963C31.8835 39.1892 32.2984 38.7744 32.8054 38.7744C33.3124 38.7744 33.7273 39.1892 33.7273 39.6963C33.7273 39.9408 33.6301 40.1752 33.4572 40.3481C33.2844 40.521 33.0499 40.6181 32.8054 40.6181C32.5609 40.6181 32.3264 40.521 32.1535 40.3481C31.9806 40.1752 31.8835 39.9408 31.8835 39.6963Z" fill="#587077"/>
<path d="M26.2404 39.9199C26.2404 38.3942 25.0005 37.1543 23.4748 37.1543C21.9491 37.1543 20.7092 38.3942 20.7092 39.9199C20.7092 41.9941 23.4748 44.9901 23.4748 44.9901C23.4748 44.9901 26.2404 41.9941 26.2404 39.9199ZM22.553 39.9199C22.553 39.4129 22.9678 38.998 23.4748 38.998C23.9818 38.998 24.3967 39.4129 24.3967 39.9199C24.3967 40.1644 24.2996 40.3989 24.1267 40.5717C23.9538 40.7446 23.7193 40.8418 23.4748 40.8418C23.2303 40.8418 22.9958 40.7446 22.823 40.5717C22.6501 40.3989 22.553 40.1644 22.553 39.9199Z" fill="#587077"/>
<path fill-rule="evenodd" clip-rule="evenodd" d="M20.4289 52.094C20.4289 51.718 20.7338 51.4131 21.1099 51.4131C22.2597 51.4131 24.4691 51.8697 27.0262 53.03C27.4762 53.2342 27.9384 53.4608 28.409 53.7114C28.4611 53.6462 28.5262 53.5896 28.603 53.5457C29.8588 52.828 31.285 52.3085 32.5359 52.0255C33.162 51.8839 33.7589 51.7981 34.2802 51.7803C34.7819 51.7632 35.2892 51.8056 35.6865 51.9822C36.0302 52.135 36.185 52.5374 36.0322 52.881C35.8795 53.2247 35.4771 53.3795 35.1334 53.2267C35.02 53.1763 34.7612 53.1266 34.3266 53.1414C33.9116 53.1556 33.402 53.2259 32.8364 53.3539C31.8569 53.5755 30.7538 53.9598 29.7441 54.4765C30.2333 54.7772 30.7274 55.1041 31.2225 55.459C33.0866 54.467 34.6847 54.4739 35.5952 54.4778C35.6494 54.478 35.7012 54.4782 35.7505 54.4782C36.1265 54.4782 36.4314 54.7831 36.4314 55.1592C36.4314 55.5353 36.1265 55.8402 35.7505 55.8402C35.7027 55.8402 35.6534 55.84 35.6027 55.8398C34.839 55.8372 33.7415 55.8334 32.4372 56.3865C33.3872 57.1586 34.3288 58.0389 35.234 59.0393C35.4863 59.3181 35.4648 59.7488 35.1859 60.0011C34.907 60.2534 34.4764 60.2319 34.2241 59.953C31.7079 57.172 28.8941 55.3731 26.4634 54.2702C24.0155 53.1594 22.0029 52.775 21.1099 52.775C20.7338 52.775 20.4289 52.4701 20.4289 52.094ZM19.7479 54.389C19.7479 54.0129 20.0528 53.708 20.4289 53.708C22.6653 53.708 27.547 54.6277 32.8506 60.4896C33.1029 60.7685 33.0814 61.1991 32.8025 61.4514C32.5237 61.7038 32.093 61.6822 31.8407 61.4034C26.7938 55.8252 22.2783 55.0699 20.4289 55.0699C20.0528 55.0699 19.7479 54.765 19.7479 54.389ZM19.4075 56.8607C19.4075 56.4847 19.7123 56.1798 20.0884 56.1798H20.1023C21.1329 56.1798 22.4326 56.1798 24.044 56.8243C25.654 57.4683 27.5216 58.7315 29.7804 61.1641C30.0363 61.4397 30.0203 61.8705 29.7447 62.1265C29.4691 62.3824 29.0383 62.3664 28.7824 62.0908C26.615 59.7567 24.9075 58.6365 23.5382 58.0888C22.1777 57.5446 21.0985 57.5417 20.0884 57.5417C19.7123 57.5417 19.4075 57.2368 19.4075 56.8607Z" fill="#587077"/>
<path d="M5.68379 14.9246C5.21107 15.3338 4.68998 15.5843 4.12006 15.6761C3.55014 15.7683 2.98505 15.7088 2.42431 15.4977C1.86334 15.2866 1.36402 14.9283 0.925632 14.4219C0.487006 13.9158 0.205066 13.3718 0.079088 12.79C-0.0468901 12.2085 -0.0224678 11.6436 0.153079 11.0962C0.328143 10.5485 0.652156 10.0702 1.12463 9.66112C1.50257 9.33348 1.89429 9.11827 2.30075 9.01454C2.70674 8.91057 3.10861 8.91105 3.50661 9.01551L0.946427 6.05974L2.242 4.93754L8.5542 12.2254L7.40033 13.2248L6.63624 12.629C6.66695 12.9919 6.62246 13.3732 6.5018 13.7729C6.38162 14.1726 6.10863 14.5564 5.68379 14.9246ZM4.97458 13.5543C5.39338 13.1916 5.61463 12.7552 5.63857 12.2443C5.66251 11.7333 5.4843 11.2587 5.10443 10.8201C4.72432 10.3812 4.28013 10.1375 3.77114 10.0884C3.26191 10.0391 2.79814 10.1957 2.37958 10.558C1.96803 10.9146 1.74703 11.3482 1.71705 11.8586C1.68658 12.369 1.8614 12.8435 2.24127 13.2821C2.62114 13.7207 3.06895 13.9652 3.58423 14.0147C4.09975 14.0643 4.56328 13.9108 4.97458 13.5543ZM13.0287 10.0925C12.4431 10.3573 11.8555 10.4612 11.2667 10.4044C10.6775 10.3471 10.1392 10.1423 9.65149 9.79C9.16402 9.43721 8.77835 8.94781 8.49496 8.3213C8.21181 7.69479 8.10107 7.0811 8.16224 6.48023C8.2239 5.87935 8.42798 5.33893 8.774 4.85896C9.1205 4.37922 9.58669 4.00661 10.1721 3.74184C10.7495 3.48045 11.333 3.37889 11.9222 3.43548C12.5115 3.49278 13.0495 3.69735 13.5372 4.04989C14.0249 4.40268 14.4104 4.89208 14.6938 5.51883C14.9769 6.14485 15.0898 6.75782 15.0325 7.357C14.975 7.95594 14.7714 8.49636 14.4208 8.97803C14.0702 9.45994 13.6066 9.83134 13.0287 10.0925ZM12.4162 8.73792C12.8229 8.55391 13.108 8.24175 13.2712 7.80022C13.434 7.35942 13.3796 6.83785 13.1073 6.23577C12.8353 5.63393 12.4796 5.24825 12.041 5.07948C11.6019 4.91046 11.1835 4.91626 10.7846 5.0964C10.3696 5.2838 10.0829 5.59741 9.924 6.03653C9.7649 6.47588 9.82148 6.99672 10.0937 7.59856C10.3658 8.2004 10.7193 8.5868 11.1543 8.75727C11.589 8.92846 12.01 8.92169 12.4162 8.73792ZM20.8244 10.0311L20.0961 0.470516L21.6187 0.354452L21.8777 1.28829C22.0689 0.978297 22.332 0.698534 22.6664 0.449238C23.0015 0.199942 23.4486 0.053896 24.0099 0.011097C24.6327 -0.0362968 25.2005 0.0727558 25.7133 0.338011C26.226 0.603508 26.6448 0.987728 26.9697 1.4914C27.2947 1.99483 27.4826 2.58047 27.5334 3.24808C27.5842 3.91545 27.4869 4.52068 27.2418 5.06328C26.9963 5.60564 26.6404 6.04426 26.1735 6.38012C25.7066 6.7155 25.1616 6.90725 24.5387 6.95464C24.0403 6.99261 23.5969 6.93215 23.2088 6.77353C22.8207 6.61515 22.4979 6.37577 22.2406 6.05514L22.5337 9.90074L20.8244 10.0311ZM24.0643 5.48643C24.6073 5.44484 25.0428 5.22819 25.3707 4.83623C25.6991 4.44427 25.8415 3.95873 25.7975 3.38035C25.7532 2.80172 25.539 2.33867 25.1543 1.99217C24.7698 1.64518 24.3063 1.49285 23.763 1.5342C23.2112 1.57603 22.7735 1.7951 22.4502 2.19141C22.1267 2.58772 21.9867 3.07495 22.031 3.65382C22.075 4.23245 22.287 4.69284 22.6664 5.03571C23.0465 5.37834 23.5122 5.5285 24.0643 5.48643ZM31.5751 7.08667C31.0083 7.01485 30.5549 6.86469 30.2147 6.63716C29.8745 6.40938 29.6353 6.13397 29.4966 5.80996C29.3578 5.48643 29.3109 5.14307 29.357 4.77989C29.4349 4.1691 29.7369 3.70339 30.2635 3.38349C30.7902 3.06334 31.5315 2.96396 32.4881 3.08559L34.1619 3.29813L34.1822 3.13854C34.2397 2.6871 34.1536 2.33867 33.9237 2.09348C33.6935 1.8483 33.3883 1.70152 33.0075 1.65316C32.6622 1.60915 32.351 1.65268 32.0729 1.78422C31.7956 1.91527 31.6055 2.13652 31.5028 2.44724L29.8426 2.23615C29.9473 1.76367 30.1622 1.36832 30.486 1.04939C30.81 0.730695 31.2054 0.503885 31.6723 0.369926C32.1392 0.235485 32.6472 0.203325 33.1968 0.272964C34.1355 0.392172 34.8449 0.721264 35.3256 1.25903C35.8061 1.79704 35.9918 2.49584 35.8828 3.35447L35.368 7.40633L33.9201 7.22256L33.8956 6.13953C33.656 6.46911 33.3465 6.72662 32.9671 6.91257C32.5882 7.09827 32.124 7.1563 31.5751 7.08667ZM32.129 5.80706C32.616 5.86896 33.015 5.75749 33.3257 5.47313C33.6362 5.18853 33.8567 4.81616 33.9873 4.35577L32.5391 4.17152C32.0877 4.11445 31.754 4.15532 31.5383 4.29459C31.3226 4.43363 31.1998 4.62272 31.1691 4.86162C31.1364 5.11841 31.2087 5.33022 31.3855 5.49683C31.5625 5.66294 31.8103 5.76667 32.129 5.80706ZM39.4493 9.0658C38.9011 8.84939 38.4548 8.57035 38.11 8.22821C37.7649 7.88606 37.5306 7.50764 37.4054 7.09392C37.2806 6.6802 37.2755 6.2556 37.3894 5.82108L38.9962 6.45436C38.9514 6.71502 39.0051 6.97374 39.1582 7.23054C39.311 7.48781 39.562 7.68488 39.9107 7.82246C40.2596 7.96005 40.543 7.99003 40.7606 7.91266C40.978 7.83552 41.1228 7.70543 41.1949 7.52263C41.2993 7.25689 41.2546 7.03057 41.0595 6.84317C40.8651 6.65578 40.5778 6.43477 40.1987 6.17991C39.9556 6.0167 39.7138 5.83994 39.472 5.64892C39.231 5.45765 39.0216 5.25261 38.8436 5.03426C38.6661 4.81495 38.5467 4.57629 38.4857 4.31708C38.425 4.05811 38.4533 3.77883 38.5711 3.47997C38.7873 2.9318 39.187 2.55677 39.7702 2.35511C40.3534 2.15321 41.0401 2.20761 41.8291 2.51857C42.5596 2.80679 43.0761 3.20697 43.3778 3.71935C43.6796 4.23197 43.7541 4.80383 43.6018 5.43396L42.0941 4.83961C42.1826 4.34706 41.9282 3.98291 41.33 3.74691C41.0312 3.6294 40.7778 3.59651 40.5701 3.64899C40.3621 3.70121 40.2238 3.81486 40.1551 3.9892C40.0831 4.172 40.1462 4.36496 40.3442 4.56783C40.543 4.7707 40.8235 4.9963 41.1859 5.24487C41.5786 5.51448 41.9319 5.78118 42.2457 6.04402C42.5591 6.30686 42.7777 6.5992 42.9 6.92103C43.0229 7.24311 42.9975 7.62419 42.8239 8.06402C42.6815 8.44945 42.4459 8.75461 42.1173 8.98045C41.7885 9.20556 41.3946 9.32864 40.9354 9.34895C40.4762 9.36975 39.981 9.2752 39.4493 9.0658ZM45.7475 12.1251C45.1614 11.7493 44.7834 11.3056 44.6132 10.7937C44.4427 10.2816 44.5914 9.66112 45.0588 8.93209L46.6197 6.49691L45.6614 5.8825L46.4352 4.67616L47.3934 5.29057L48.5236 3.89949L49.7974 4.71605L48.8363 6.2157L50.3468 7.18387L49.5735 8.3907L48.063 7.42204L46.4949 9.86834C46.3213 10.1389 46.2603 10.3621 46.3119 10.5384C46.3634 10.7144 46.5317 10.8943 46.8172 11.0773L47.516 11.5254L46.7285 12.7537L45.7475 12.1251ZM50.1084 15.7501C49.6431 15.3067 49.3269 14.8011 49.1583 14.2338C48.9903 13.6663 48.978 13.0903 49.1221 12.5061C49.2662 11.922 49.5752 11.3808 50.0496 10.8834C50.5243 10.3858 51.0516 10.0526 51.6315 9.8843C52.2113 9.71576 52.7887 9.70198 53.3637 9.84295C53.9385 9.98416 54.4586 10.2763 54.9236 10.7197C55.3823 11.1571 55.6959 11.6598 55.8642 12.2273C56.0322 12.7949 56.0443 13.3706 55.9005 13.9548C55.7566 14.539 55.4473 15.0804 54.9729 15.5777C54.4983 16.0754 53.9728 16.41 53.3959 16.5815C52.8192 16.7529 52.2418 16.7667 51.6639 16.6223C51.0855 16.4782 50.5673 16.1878 50.1084 15.7501ZM51.1343 14.6744C51.4574 14.9824 51.8537 15.1294 52.3242 15.1149C52.7943 15.1009 53.2573 14.8545 53.7129 14.3765C54.1689 13.8984 54.3931 13.4243 54.3849 12.9542C54.3766 12.4837 54.2146 12.0977 53.8979 11.7957C53.5683 11.4816 53.1703 11.3332 52.7034 11.3508C52.2367 11.368 51.7753 11.6156 51.3191 12.0939C50.8633 12.5722 50.6377 13.0446 50.6425 13.5118C50.6476 13.979 50.8115 14.3663 51.1343 14.6744Z" fill="#E15252"/>
<path d="M2.66682 71.7479C2.21079 71.4038 1.89161 71.0484 1.70978 70.6818C1.5277 70.3153 1.4571 69.9572 1.49723 69.607C1.53713 69.2574 1.6677 68.9363 1.88798 68.6439C2.25891 68.1524 2.75242 67.8985 3.36853 67.8823C3.9844 67.8661 4.67716 68.1482 5.44705 68.7288L6.79412 69.7451L6.89108 69.6169C7.16528 69.2533 7.2637 68.908 7.18584 68.5808C7.10798 68.2541 6.91599 67.9749 6.60963 67.7439C6.3318 67.5341 6.0397 67.4173 5.73334 67.3933C5.42722 67.3694 5.15254 67.4666 4.90904 67.6857L3.57261 66.6776C3.8988 66.3197 4.28133 66.083 4.72092 65.9674C5.16051 65.8514 5.61655 65.8511 6.0883 65.9667C6.56006 66.0821 7.01706 66.3067 7.45907 66.6404C8.21446 67.2098 8.66687 67.8479 8.81702 68.5537C8.9667 69.2591 8.78051 69.9579 8.25943 70.6489L5.79984 73.9096L4.6346 73.0307L5.15108 72.0785C4.77944 72.2456 4.38313 72.3152 3.96167 72.2884C3.54021 72.2613 3.10884 72.0811 2.66682 71.7479ZM3.78346 70.9125C4.17542 71.2085 4.57681 71.3098 4.98763 71.2174C5.39869 71.1246 5.77493 70.9108 6.11708 70.5759L4.9516 69.6972C4.58817 69.423 4.27843 69.2929 4.02212 69.3062C3.76557 69.32 3.56511 69.423 3.42003 69.6152C3.26407 69.822 3.22152 70.0413 3.29236 70.2739C3.36297 70.506 3.52691 70.7188 3.78346 70.9125ZM11.1847 76.8683C10.5976 76.6064 10.13 76.2362 9.78108 75.7582C9.43241 75.2799 9.22784 74.7414 9.16739 74.1427C9.10694 73.5443 9.21672 72.9306 9.49697 72.3029C9.77697 71.6749 10.1622 71.1845 10.652 70.8313C11.1419 70.478 11.6812 70.2713 12.2702 70.2115C12.859 70.1516 13.4468 70.2521 14.0339 70.514C14.6127 70.7725 15.0763 71.1408 15.4254 71.6188C15.7741 72.0971 15.9787 72.6356 16.0391 73.234C16.0993 73.833 15.9896 74.4464 15.7096 75.0746C15.4298 75.7023 15.0465 76.1934 14.5605 76.5486C14.0747 76.9034 13.5355 77.1101 12.9426 77.1684C12.3495 77.2264 11.7641 77.1265 11.1847 76.8683ZM11.7904 75.5108C12.1979 75.6922 12.6208 75.6977 13.0592 75.5268C13.4971 75.3556 13.8506 74.968 14.1195 74.3652C14.3888 73.7616 14.4408 73.2396 14.2754 72.7998C14.11 72.3592 13.8279 72.0502 13.4282 71.8717C13.0125 71.6863 12.5877 71.6802 12.1539 71.8531C11.7196 72.026 11.368 72.4141 11.0989 73.0176C10.8298 73.6209 10.7759 74.1418 10.9374 74.5801C11.0987 75.0188 11.383 75.3288 11.7904 75.5108ZM18.5768 82.3315L19.7068 72.8099L21.2231 72.9901L21.2968 73.9563C21.5442 73.6886 21.8564 73.4652 22.2326 73.2848C22.6093 73.1049 23.0767 73.0481 23.6355 73.1143C24.2558 73.1878 24.7918 73.4047 25.244 73.7638C25.6957 74.1229 26.0325 74.5811 26.254 75.138C26.4757 75.6946 26.5471 76.3051 26.4682 76.9703C26.3892 77.635 26.1771 78.2103 25.8318 78.6949C25.4865 79.1799 25.0525 79.5419 24.5297 79.7813C24.0067 80.0202 23.4351 80.1029 22.8149 80.0294C22.3182 79.9704 21.8948 79.8255 21.5449 79.5951C21.1946 79.3649 20.924 79.0675 20.7334 78.7038L20.2789 82.5332L18.5768 82.3315ZM22.6323 78.4973C23.1732 78.5616 23.6425 78.4327 24.0403 78.1114C24.4378 77.79 24.6709 77.3413 24.7394 76.765C24.8078 76.1888 24.6864 75.6934 24.3764 75.2789C24.0659 74.8647 23.6404 74.6254 23.0995 74.5613C22.5498 74.4957 22.0781 74.6266 21.6842 74.953C21.2906 75.2792 21.0591 75.7304 20.991 76.3068C20.9225 76.8828 21.0417 77.3758 21.3481 77.785C21.6547 78.1946 22.0827 78.432 22.6323 78.4973ZM28.9247 80.1261L28.4254 73.5029L29.9482 73.3883L30.2016 74.6181C30.4098 74.1727 30.7113 73.8076 31.1062 73.5227C31.5011 73.2377 31.9791 73.074 32.5396 73.0319L32.6755 74.8345L32.1948 74.8708C31.821 74.8988 31.4914 74.982 31.2063 75.1196C30.9217 75.2579 30.7075 75.475 30.5641 75.7725C30.4209 76.0699 30.3682 76.4722 30.4064 76.9795L30.634 79.9974L28.9247 80.1261ZM37.7509 78.957C37.2006 79.1105 36.7244 79.148 36.3226 79.0699C35.9209 78.9918 35.5935 78.8305 35.3397 78.5858C35.0865 78.3416 34.9105 78.0427 34.8123 77.6899C34.6474 77.0968 34.7453 76.5508 35.1068 76.0517C35.468 75.5524 36.1132 75.1735 37.0422 74.9148L38.6673 74.4624L38.6243 74.3074C38.5022 73.8688 38.2877 73.5808 37.9808 73.4442C37.6738 73.3071 37.336 73.2901 36.966 73.3931C36.6306 73.4862 36.3603 73.647 36.1552 73.876C35.95 74.1045 35.8605 74.3821 35.8866 74.7083L34.2738 75.1576C34.1875 74.681 34.2322 74.2332 34.4073 73.8136C34.5823 73.3943 34.8594 73.0321 35.2379 72.7275C35.616 72.4228 36.0721 72.1962 36.6052 72.0478C37.5168 71.7939 38.2983 71.8219 38.9502 72.1317C39.6014 72.4414 40.0434 73.0135 40.2758 73.8477L41.3714 77.7823L39.9653 78.1738L39.523 77.1848C39.4297 77.5816 39.2442 77.9387 38.9669 78.2572C38.6893 78.5754 38.2841 78.8087 37.7509 78.957ZM37.7656 77.563C38.2386 77.4315 38.5631 77.1739 38.7396 76.7914C38.9154 76.4086 38.9744 75.9797 38.9164 75.505L37.5103 75.8965C37.0717 76.0186 36.7798 76.1859 36.6347 76.3975C36.4899 76.6093 36.45 76.8311 36.5146 77.0634C36.584 77.313 36.7327 77.4798 36.9602 77.5652C37.1875 77.6496 37.4561 77.6491 37.7656 77.563ZM46.6259 75.2782C46.0019 75.5872 45.4266 75.6825 44.9002 75.565C44.3733 75.4472 43.9183 75.0004 43.5338 74.2244L42.2498 71.6323L41.2297 72.1375L40.5942 70.8535L41.6139 70.3484L41.0033 68.663L42.3596 67.9916L43.1501 69.5874L44.7578 68.7909L45.394 70.0752L43.7862 70.8716L45.0758 73.4756C45.2184 73.7636 45.3782 73.9307 45.5562 73.9776C45.7335 74.0238 45.9743 73.972 46.278 73.8214L47.022 73.4531L47.6698 74.761L46.6259 75.2782ZM52.5131 71.4844C52.0084 71.8824 51.4632 72.1244 50.8778 72.2107C50.2921 72.2971 49.7205 72.2277 49.1622 72.0028C48.6041 71.7777 48.112 71.3954 47.6867 70.8557C47.2609 70.3155 47.0058 69.7465 46.9209 69.1486C46.8361 68.5504 46.9038 67.9768 47.1245 67.4277C47.3455 66.8785 47.7082 66.4049 48.2129 66.0071C48.7107 65.6149 49.2524 65.3755 49.8383 65.2889C50.4239 65.2026 50.9953 65.2723 51.5536 65.4967C52.1114 65.722 52.6037 66.1045 53.0293 66.6445C53.4549 67.1842 53.7117 67.7519 53.8002 68.3475C53.8884 68.9423 53.8207 69.5161 53.5963 70.0681C53.3717 70.6197 53.0109 71.0919 52.5131 71.4844ZM51.593 70.317C51.9434 70.0403 52.1448 69.6687 52.197 69.201C52.2495 68.7339 52.0708 68.2409 51.6622 67.7222C51.253 67.203 50.8151 66.9143 50.3487 66.8563C49.882 66.7978 49.477 66.9039 49.1332 67.1748C48.7758 67.4567 48.5729 67.8298 48.5238 68.2945C48.475 68.759 48.6554 69.2509 49.0643 69.7695C49.4731 70.2884 49.9094 70.5783 50.3724 70.6395C50.8357 70.7007 51.2424 70.5933 51.593 70.317Z" fill="#E15252"/>
</svg>
