<svg width="68" height="68" viewBox="0 0 68 68" fill="none" xmlns="http://www.w3.org/2000/svg">
<mask id="path-1-inside-1_336_2078" fill="white">
<path fill-rule="evenodd" clip-rule="evenodd" d="M52.0391 22.9741C51.1406 23.2079 50.1129 23.2614 49.0952 23.3014C51.0538 21.9696 53.9374 19.3202 55.2603 14.7136C56.2191 11.3746 56.3519 7.0075 54.6788 1.38248C54.5467 0.936279 54.2672 0.570038 53.9035 0.325874C53.5419 0.0831451 53.1 -0.0360794 52.6405 0.00961304C52.1758 0.0556564 51.7624 0.262337 51.4554 0.574677C51.1463 0.88916 50.9453 1.30502 50.9061 1.76765C50.669 4.63441 49.7891 8.98436 46.8174 12.1631C41.8603 17.4662 25.0891 17.4597 20.1312 12.1667L20.1287 12.1692C17.1567 8.99435 16.2768 4.63834 16.0387 1.7673C16.0001 1.30467 15.7991 0.888809 15.4897 0.574326C15.1823 0.261986 14.7693 0.0549469 14.3045 0.00961304C13.8451 -0.0360794 13.4032 0.0831451 13.042 0.325523C12.6779 0.569687 12.398 0.935928 12.2663 1.38177C10.5921 7.00964 10.7296 11.3824 11.6941 14.7282C13.0163 19.3166 15.8852 21.9589 17.841 23.2918C16.9011 23.2522 15.9619 23.1897 15.1334 22.9741C14.5169 22.8134 13.8116 22.5218 13.0905 22.2234L13.0878 22.2222L13.0877 22.2222C11.3198 21.4915 9.4706 20.7272 7.52226 21.1343C6.78763 21.2874 6.06299 21.5487 5.38726 21.8971C4.70832 22.2477 4.07471 22.6871 3.52321 23.1954C3.32545 23.3771 3.13233 23.582 2.94207 23.8012C2.77037 23.9986 2.60617 24.2035 2.44518 24.4112C2.40301 24.4664 2.32235 24.5738 2.22967 24.6972L2.10036 24.8692C1.66379 25.4518 1.2233 26.039 0.753178 26.4009L0.754959 26.4034C0.541496 26.568 0.37444 26.7568 0.253787 26.9671C0.127422 27.1884 0.0471061 27.4297 0.0146225 27.6903C-0.0167902 27.9394 0.00248166 28.19 0.0717324 28.4403C0.139198 28.683 0.252713 28.9075 0.413346 29.1121C1.12013 30.0137 1.94829 30.8965 2.84676 31.6768C3.6924 32.4111 4.60516 33.0604 5.5479 33.5594C6.77835 34.2098 8.08197 34.4472 9.37382 34.3719C10.7681 34.2909 12.1367 33.8457 13.3693 33.1682C13.7773 32.9437 14.1725 32.7195 14.5555 32.4875L14.5266 32.7327C14.4438 33.4588 14.4013 34.1831 14.4013 34.9038C14.4013 37.9369 15.1366 40.8943 16.4884 43.5426C17.746 46.0075 19.5444 48.2081 21.7861 49.9555C21.6055 50.4202 21.4509 50.8943 21.3231 51.3762C21.1468 52.0419 21.0233 52.7251 20.9558 53.4201L20.923 53.7603L20.9229 53.7612C20.2822 60.3714 19.7876 65.4741 30.2758 67.0543C30.6845 67.1161 31.2181 67.165 31.8168 67.2C32.3697 67.2314 33.0005 67.2482 33.6487 67.2478C34.268 67.2471 34.8592 67.2317 35.3657 67.2C35.8944 67.1661 36.3709 67.1161 36.7532 67.049C47.1861 65.212 46.7132 60.3409 46.076 53.7846L46.0464 53.4787C45.9764 52.7537 45.8522 52.0551 45.6737 51.3797C45.5813 51.031 45.4752 50.6872 45.3564 50.3495C45.3275 50.2001 45.2957 50.0517 45.2611 49.9043L45.2072 49.9465L45.2611 49.9041L45.2611 49.9043C47.4756 48.1652 49.2531 45.9816 50.4995 43.5391C51.8502 40.8907 52.5852 37.9344 52.5852 34.9038C52.5852 34.1424 52.5388 33.3838 52.4496 32.6321L52.4153 32.3622C52.8747 32.6474 53.3334 32.9091 53.8028 33.1682C55.0358 33.8457 56.404 34.2909 57.7986 34.3719C59.0898 34.4472 60.3934 34.2098 61.6242 33.5594C62.5659 33.0608 63.479 32.4115 64.3236 31.6779C65.2317 30.8897 66.0591 30.0087 66.7588 29.1178C66.9176 28.9161 67.0315 28.6891 67.1007 28.4403C67.1703 28.1904 67.1889 27.9398 67.1582 27.6903C67.1257 27.4304 67.0451 27.1887 66.9183 26.9671C66.7945 26.7504 66.6278 26.5612 66.4189 26.4009C65.9495 26.0393 65.5101 25.4543 65.0746 24.8731L65.0435 24.8318L64.9518 24.7099L64.8391 24.56C64.7904 24.4954 64.7506 24.4428 64.7266 24.4112C64.5659 24.2035 64.4017 23.9989 64.2297 23.8012C64.0526 23.5973 63.8606 23.3957 63.6453 23.1983L63.6478 23.1954C63.0978 22.6874 62.4641 22.2484 61.7859 21.8975C61.1095 21.5487 60.3852 21.2874 59.6499 21.1339C57.7006 20.7272 55.8516 21.4917 54.085 22.2221L54.0827 22.223C53.3612 22.5218 52.6562 22.8134 52.0391 22.9741ZM33.6487 64.5285C33.9386 64.5281 34.2341 64.5235 34.5293 64.5131C34.5281 64.5119 34.527 64.5108 34.5258 64.5096C40.0443 64.4151 42.1956 62.9726 42.6575 61.9999C42.7032 62.0461 42.7311 62.0715 42.7363 62.0704C42.766 62.0643 42.8575 61.8087 42.9697 61.4525C43.5319 60.4089 44.0396 58.0513 43.4106 54.1454C43.386 53.8901 43.3515 53.6358 43.3081 53.3834C43.298 53.3851 43.288 53.3868 43.2779 53.3885C43.2049 53.0028 43.1212 52.6032 43.026 52.1897C43.0271 52.1896 43.0282 52.1894 43.0293 52.1893C43.0244 52.1729 43.0195 52.1564 43.0145 52.14C42.8231 51.3146 42.5858 50.4337 42.2955 49.4957C42.2982 49.4343 42.3114 49.3913 42.3321 49.3237C42.3428 49.289 42.3554 49.2479 42.3697 49.1944C42.4807 48.7778 42.7284 48.4009 43.095 48.1321L43.1118 48.12H43.1171C45.2225 46.5843 46.9067 44.5778 48.0679 42.3018C49.2255 40.033 49.8552 37.5 49.8552 34.9038C49.8552 34.2366 49.8166 33.5855 49.7413 32.9523C49.6617 32.2847 49.5471 31.6461 49.3993 31.0386C49.3004 30.6324 49.3344 30.2236 49.4818 29.8602C49.6288 29.4961 49.8898 29.1788 50.2443 28.9553C50.5966 28.7333 50.9935 28.6359 51.3855 28.6594C51.7803 28.6833 52.1644 28.8283 52.487 29.0914C52.8676 29.4016 53.2731 29.685 53.7007 29.9559C54.1294 30.2268 54.6063 30.4996 55.1143 30.7798C56.0131 31.2735 56.9862 31.5965 57.9479 31.6529C58.7689 31.7007 59.5899 31.5537 60.3552 31.1492C61.1088 30.7505 61.8491 30.2226 62.543 29.62C63.1117 29.126 63.6507 28.5791 64.1412 28.0098C63.6811 27.5465 63.2923 27.0285 62.9057 26.5134L62.8993 26.5048C62.8179 26.3963 62.7408 26.2935 62.5727 26.075C62.4392 25.9033 62.306 25.7363 62.1722 25.5817C62.044 25.435 61.9219 25.3043 61.8081 25.2005H61.8031C61.4286 24.8546 60.9985 24.5565 60.5376 24.3184C60.0757 24.0796 59.586 23.9022 59.0951 23.7997C57.9618 23.5631 56.5068 24.1646 55.1168 24.74L55.1161 24.7402L55.1161 24.7402L55.1161 24.7403C54.3099 25.0736 53.522 25.3993 52.7216 25.6081C51.4683 25.934 50.1943 25.9826 48.9485 26.0297C48.7821 26.0361 48.6208 26.0425 48.3534 26.054C48.0318 26.0686 47.7216 26.004 47.4371 25.8676C47.1497 25.7295 46.9034 25.5274 46.7142 25.2683C46.6493 25.1794 46.5525 25.0527 46.4223 24.8845C46.2648 24.6825 46.1649 24.5547 46.1231 24.5044C45.9354 24.2763 45.8061 24.025 45.738 23.7573L45.7426 23.7562C45.6723 23.4806 45.6633 23.2015 45.7162 22.9238C45.7712 22.6343 45.8832 22.3737 46.0471 22.1481C46.2124 21.9196 46.4255 21.7322 46.6811 21.5909C48.121 20.798 51.313 18.5792 52.6373 13.9676C53.2424 11.8597 53.4605 9.25208 52.96 6.04834C52.295 8.69379 51.0642 11.6091 48.8118 14.0182C42.239 21.049 24.0214 20.304 18.148 14.0329V14.0275C15.8859 11.6127 14.6512 8.69165 13.9847 6.04264C13.4803 9.25958 13.6988 11.8733 14.3063 13.9825C15.6403 18.6095 18.8576 20.8245 20.2855 21.6058H20.2908C20.5389 21.7422 20.7506 21.9296 20.9201 22.1623C21.089 22.3937 21.2025 22.6525 21.2567 22.933C21.3121 23.2193 21.3042 23.5013 21.2353 23.7723L21.2339 23.7719C21.1647 24.0425 21.0358 24.2938 20.8502 24.5194C20.7641 24.6243 20.667 24.746 20.56 24.8842C20.4779 24.9895 20.3833 25.1155 20.2776 25.2608C20.0863 25.5217 19.8425 25.7238 19.5605 25.8598C19.2788 25.9951 18.969 26.0597 18.6459 26.0465L18.2208 26.0297C16.9757 25.9826 15.7028 25.934 14.4513 25.6081C13.6512 25.3998 12.8633 25.0739 12.0579 24.7407L12.056 24.74C10.6657 24.1646 9.21069 23.5631 8.07698 23.8001C7.5858 23.9025 7.0964 24.08 6.63485 24.318C6.17401 24.5558 5.7428 24.8549 5.36799 25.2005C5.23663 25.3208 5.11526 25.4493 4.99996 25.5817C4.86574 25.7363 4.73259 25.9033 4.59945 26.075C4.43667 26.2863 4.356 26.3934 4.27568 26.5009C3.88588 27.021 3.49322 27.5443 3.02881 28.0119C3.515 28.5748 4.05365 29.1206 4.62765 29.6189C5.32194 30.2219 6.06264 30.7505 6.81654 31.1492C7.58151 31.5537 8.40288 31.7007 9.22425 31.6529C10.1859 31.5965 11.1593 31.2735 12.0578 30.7798C12.5105 30.5303 12.9442 30.2825 13.3568 30.0259C13.7634 29.7724 14.1443 29.5144 14.4934 29.2434C14.8161 28.9932 15.1973 28.8583 15.5878 28.8408C15.9773 28.8233 16.3678 28.9239 16.713 29.1445C17.0582 29.3655 17.3141 29.6793 17.4615 30.0416C17.6072 30.4003 17.6432 30.8005 17.5508 31.1992C17.4126 31.7943 17.307 32.4075 17.2349 33.0372C17.1663 33.6369 17.1313 34.2595 17.1313 34.9038C17.1313 37.5021 17.7617 40.0362 18.9197 42.3057C20.0806 44.5803 21.7644 46.5854 23.8686 48.1217L23.8836 48.1328H23.8893C24.2592 48.4005 24.5098 48.7778 24.6222 49.1955C24.7329 49.6074 24.7043 50.0586 24.5169 50.4795L24.5151 50.4784L24.5105 50.4877L24.5155 50.4898C24.4029 50.744 24.3013 50.9991 24.2105 51.2543C22.4317 55.8428 21.565 63.5912 30.1584 64.3384C31.0512 64.4161 31.8857 64.4662 32.665 64.4924C32.6729 64.4992 32.6809 64.506 32.6888 64.5127C33.0112 64.5235 33.3346 64.5285 33.6487 64.5285Z"/>
</mask>
<path fill-rule="evenodd" clip-rule="evenodd" d="M52.0391 22.9741C51.1406 23.2079 50.1129 23.2614 49.0952 23.3014C51.0538 21.9696 53.9374 19.3202 55.2603 14.7136C56.2191 11.3746 56.3519 7.0075 54.6788 1.38248C54.5467 0.936279 54.2672 0.570038 53.9035 0.325874C53.5419 0.0831451 53.1 -0.0360794 52.6405 0.00961304C52.1758 0.0556564 51.7624 0.262337 51.4554 0.574677C51.1463 0.88916 50.9453 1.30502 50.9061 1.76765C50.669 4.63441 49.7891 8.98436 46.8174 12.1631C41.8603 17.4662 25.0891 17.4597 20.1312 12.1667L20.1287 12.1692C17.1567 8.99435 16.2768 4.63834 16.0387 1.7673C16.0001 1.30467 15.7991 0.888809 15.4897 0.574326C15.1823 0.261986 14.7693 0.0549469 14.3045 0.00961304C13.8451 -0.0360794 13.4032 0.0831451 13.042 0.325523C12.6779 0.569687 12.398 0.935928 12.2663 1.38177C10.5921 7.00964 10.7296 11.3824 11.6941 14.7282C13.0163 19.3166 15.8852 21.9589 17.841 23.2918C16.9011 23.2522 15.9619 23.1897 15.1334 22.9741C14.5169 22.8134 13.8116 22.5218 13.0905 22.2234L13.0878 22.2222L13.0877 22.2222C11.3198 21.4915 9.4706 20.7272 7.52226 21.1343C6.78763 21.2874 6.06299 21.5487 5.38726 21.8971C4.70832 22.2477 4.07471 22.6871 3.52321 23.1954C3.32545 23.3771 3.13233 23.582 2.94207 23.8012C2.77037 23.9986 2.60617 24.2035 2.44518 24.4112C2.40301 24.4664 2.32235 24.5738 2.22967 24.6972L2.10036 24.8692C1.66379 25.4518 1.2233 26.039 0.753178 26.4009L0.754959 26.4034C0.541496 26.568 0.37444 26.7568 0.253787 26.9671C0.127422 27.1884 0.0471061 27.4297 0.0146225 27.6903C-0.0167902 27.9394 0.00248166 28.19 0.0717324 28.4403C0.139198 28.683 0.252713 28.9075 0.413346 29.1121C1.12013 30.0137 1.94829 30.8965 2.84676 31.6768C3.6924 32.4111 4.60516 33.0604 5.5479 33.5594C6.77835 34.2098 8.08197 34.4472 9.37382 34.3719C10.7681 34.2909 12.1367 33.8457 13.3693 33.1682C13.7773 32.9437 14.1725 32.7195 14.5555 32.4875L14.5266 32.7327C14.4438 33.4588 14.4013 34.1831 14.4013 34.9038C14.4013 37.9369 15.1366 40.8943 16.4884 43.5426C17.746 46.0075 19.5444 48.2081 21.7861 49.9555C21.6055 50.4202 21.4509 50.8943 21.3231 51.3762C21.1468 52.0419 21.0233 52.7251 20.9558 53.4201L20.923 53.7603L20.9229 53.7612C20.2822 60.3714 19.7876 65.4741 30.2758 67.0543C30.6845 67.1161 31.2181 67.165 31.8168 67.2C32.3697 67.2314 33.0005 67.2482 33.6487 67.2478C34.268 67.2471 34.8592 67.2317 35.3657 67.2C35.8944 67.1661 36.3709 67.1161 36.7532 67.049C47.1861 65.212 46.7132 60.3409 46.076 53.7846L46.0464 53.4787C45.9764 52.7537 45.8522 52.0551 45.6737 51.3797C45.5813 51.031 45.4752 50.6872 45.3564 50.3495C45.3275 50.2001 45.2957 50.0517 45.2611 49.9043L45.2072 49.9465L45.2611 49.9041L45.2611 49.9043C47.4756 48.1652 49.2531 45.9816 50.4995 43.5391C51.8502 40.8907 52.5852 37.9344 52.5852 34.9038C52.5852 34.1424 52.5388 33.3838 52.4496 32.6321L52.4153 32.3622C52.8747 32.6474 53.3334 32.9091 53.8028 33.1682C55.0358 33.8457 56.404 34.2909 57.7986 34.3719C59.0898 34.4472 60.3934 34.2098 61.6242 33.5594C62.5659 33.0608 63.479 32.4115 64.3236 31.6779C65.2317 30.8897 66.0591 30.0087 66.7588 29.1178C66.9176 28.9161 67.0315 28.6891 67.1007 28.4403C67.1703 28.1904 67.1889 27.9398 67.1582 27.6903C67.1257 27.4304 67.0451 27.1887 66.9183 26.9671C66.7945 26.7504 66.6278 26.5612 66.4189 26.4009C65.9495 26.0393 65.5101 25.4543 65.0746 24.8731L65.0435 24.8318L64.9518 24.7099L64.8391 24.56C64.7904 24.4954 64.7506 24.4428 64.7266 24.4112C64.5659 24.2035 64.4017 23.9989 64.2297 23.8012C64.0526 23.5973 63.8606 23.3957 63.6453 23.1983L63.6478 23.1954C63.0978 22.6874 62.4641 22.2484 61.7859 21.8975C61.1095 21.5487 60.3852 21.2874 59.6499 21.1339C57.7006 20.7272 55.8516 21.4917 54.085 22.2221L54.0827 22.223C53.3612 22.5218 52.6562 22.8134 52.0391 22.9741ZM33.6487 64.5285C33.9386 64.5281 34.2341 64.5235 34.5293 64.5131C34.5281 64.5119 34.527 64.5108 34.5258 64.5096C40.0443 64.4151 42.1956 62.9726 42.6575 61.9999C42.7032 62.0461 42.7311 62.0715 42.7363 62.0704C42.766 62.0643 42.8575 61.8087 42.9697 61.4525C43.5319 60.4089 44.0396 58.0513 43.4106 54.1454C43.386 53.8901 43.3515 53.6358 43.3081 53.3834C43.298 53.3851 43.288 53.3868 43.2779 53.3885C43.2049 53.0028 43.1212 52.6032 43.026 52.1897C43.0271 52.1896 43.0282 52.1894 43.0293 52.1893C43.0244 52.1729 43.0195 52.1564 43.0145 52.14C42.8231 51.3146 42.5858 50.4337 42.2955 49.4957C42.2982 49.4343 42.3114 49.3913 42.3321 49.3237C42.3428 49.289 42.3554 49.2479 42.3697 49.1944C42.4807 48.7778 42.7284 48.4009 43.095 48.1321L43.1118 48.12H43.1171C45.2225 46.5843 46.9067 44.5778 48.0679 42.3018C49.2255 40.033 49.8552 37.5 49.8552 34.9038C49.8552 34.2366 49.8166 33.5855 49.7413 32.9523C49.6617 32.2847 49.5471 31.6461 49.3993 31.0386C49.3004 30.6324 49.3344 30.2236 49.4818 29.8602C49.6288 29.4961 49.8898 29.1788 50.2443 28.9553C50.5966 28.7333 50.9935 28.6359 51.3855 28.6594C51.7803 28.6833 52.1644 28.8283 52.487 29.0914C52.8676 29.4016 53.2731 29.685 53.7007 29.9559C54.1294 30.2268 54.6063 30.4996 55.1143 30.7798C56.0131 31.2735 56.9862 31.5965 57.9479 31.6529C58.7689 31.7007 59.5899 31.5537 60.3552 31.1492C61.1088 30.7505 61.8491 30.2226 62.543 29.62C63.1117 29.126 63.6507 28.5791 64.1412 28.0098C63.6811 27.5465 63.2923 27.0285 62.9057 26.5134L62.8993 26.5048C62.8179 26.3963 62.7408 26.2935 62.5727 26.075C62.4392 25.9033 62.306 25.7363 62.1722 25.5817C62.044 25.435 61.9219 25.3043 61.8081 25.2005H61.8031C61.4286 24.8546 60.9985 24.5565 60.5376 24.3184C60.0757 24.0796 59.586 23.9022 59.0951 23.7997C57.9618 23.5631 56.5068 24.1646 55.1168 24.74L55.1161 24.7402L55.1161 24.7402L55.1161 24.7403C54.3099 25.0736 53.522 25.3993 52.7216 25.6081C51.4683 25.934 50.1943 25.9826 48.9485 26.0297C48.7821 26.0361 48.6208 26.0425 48.3534 26.054C48.0318 26.0686 47.7216 26.004 47.4371 25.8676C47.1497 25.7295 46.9034 25.5274 46.7142 25.2683C46.6493 25.1794 46.5525 25.0527 46.4223 24.8845C46.2648 24.6825 46.1649 24.5547 46.1231 24.5044C45.9354 24.2763 45.8061 24.025 45.738 23.7573L45.7426 23.7562C45.6723 23.4806 45.6633 23.2015 45.7162 22.9238C45.7712 22.6343 45.8832 22.3737 46.0471 22.1481C46.2124 21.9196 46.4255 21.7322 46.6811 21.5909C48.121 20.798 51.313 18.5792 52.6373 13.9676C53.2424 11.8597 53.4605 9.25208 52.96 6.04834C52.295 8.69379 51.0642 11.6091 48.8118 14.0182C42.239 21.049 24.0214 20.304 18.148 14.0329V14.0275C15.8859 11.6127 14.6512 8.69165 13.9847 6.04264C13.4803 9.25958 13.6988 11.8733 14.3063 13.9825C15.6403 18.6095 18.8576 20.8245 20.2855 21.6058H20.2908C20.5389 21.7422 20.7506 21.9296 20.9201 22.1623C21.089 22.3937 21.2025 22.6525 21.2567 22.933C21.3121 23.2193 21.3042 23.5013 21.2353 23.7723L21.2339 23.7719C21.1647 24.0425 21.0358 24.2938 20.8502 24.5194C20.7641 24.6243 20.667 24.746 20.56 24.8842C20.4779 24.9895 20.3833 25.1155 20.2776 25.2608C20.0863 25.5217 19.8425 25.7238 19.5605 25.8598C19.2788 25.9951 18.969 26.0597 18.6459 26.0465L18.2208 26.0297C16.9757 25.9826 15.7028 25.934 14.4513 25.6081C13.6512 25.3998 12.8633 25.0739 12.0579 24.7407L12.056 24.74C10.6657 24.1646 9.21069 23.5631 8.07698 23.8001C7.5858 23.9025 7.0964 24.08 6.63485 24.318C6.17401 24.5558 5.7428 24.8549 5.36799 25.2005C5.23663 25.3208 5.11526 25.4493 4.99996 25.5817C4.86574 25.7363 4.73259 25.9033 4.59945 26.075C4.43667 26.2863 4.356 26.3934 4.27568 26.5009C3.88588 27.021 3.49322 27.5443 3.02881 28.0119C3.515 28.5748 4.05365 29.1206 4.62765 29.6189C5.32194 30.2219 6.06264 30.7505 6.81654 31.1492C7.58151 31.5537 8.40288 31.7007 9.22425 31.6529C10.1859 31.5965 11.1593 31.2735 12.0578 30.7798C12.5105 30.5303 12.9442 30.2825 13.3568 30.0259C13.7634 29.7724 14.1443 29.5144 14.4934 29.2434C14.8161 28.9932 15.1973 28.8583 15.5878 28.8408C15.9773 28.8233 16.3678 28.9239 16.713 29.1445C17.0582 29.3655 17.3141 29.6793 17.4615 30.0416C17.6072 30.4003 17.6432 30.8005 17.5508 31.1992C17.4126 31.7943 17.307 32.4075 17.2349 33.0372C17.1663 33.6369 17.1313 34.2595 17.1313 34.9038C17.1313 37.5021 17.7617 40.0362 18.9197 42.3057C20.0806 44.5803 21.7644 46.5854 23.8686 48.1217L23.8836 48.1328H23.8893C24.2592 48.4005 24.5098 48.7778 24.6222 49.1955C24.7329 49.6074 24.7043 50.0586 24.5169 50.4795L24.5151 50.4784L24.5105 50.4877L24.5155 50.4898C24.4029 50.744 24.3013 50.9991 24.2105 51.2543C22.4317 55.8428 21.565 63.5912 30.1584 64.3384C31.0512 64.4161 31.8857 64.4662 32.665 64.4924C32.6729 64.4992 32.6809 64.506 32.6888 64.5127C33.0112 64.5235 33.3346 64.5285 33.6487 64.5285Z" fill="white"/>
<path d="M49.0952 23.3014L49.1092 23.6581L47.8638 23.707L48.8945 23.0062L49.0952 23.3014ZM52.0391 22.9741L52.129 23.3195H52.129L52.0391 22.9741ZM55.2603 14.7136L55.6034 14.8121L55.6034 14.8121L55.2603 14.7136ZM54.6788 1.38248L54.3367 1.48425L54.3365 1.4838L54.6788 1.38248ZM53.9035 0.325874L53.7045 0.622253L53.9035 0.325874ZM52.6405 0.00961304L52.6759 0.364822L52.6757 0.364838L52.6405 0.00961304ZM51.4554 0.574677L51.71 0.824898L51.71 0.824913L51.4554 0.574677ZM50.9061 1.76765L50.5503 1.73824L50.5504 1.73746L50.9061 1.76765ZM46.8174 12.1631L46.5566 11.9194L46.5566 11.9193L46.8174 12.1631ZM20.1312 12.1667L19.8791 11.914L20.1399 11.6538L20.3918 11.9227L20.1312 12.1667ZM20.1287 12.1692L20.3809 12.4219L20.12 12.6822L19.8682 12.4131L20.1287 12.1692ZM16.0387 1.7673L16.3944 1.73765L16.3944 1.73779L16.0387 1.7673ZM15.4897 0.574326L15.2352 0.824707L15.2352 0.824692L15.4897 0.574326ZM14.3045 0.00961304L14.2699 0.364891L14.2692 0.364822L14.3045 0.00961304ZM13.042 0.325523L13.2409 0.621948L13.2408 0.621994L13.042 0.325523ZM12.2663 1.38177L12.6086 1.48291L12.6084 1.48355L12.2663 1.38177ZM11.6941 14.7282L12.0371 14.6294L12.0371 14.6294L11.6941 14.7282ZM17.841 23.2918L18.042 22.9968L19.0754 23.7011L17.8259 23.6484L17.841 23.2918ZM15.1334 22.9741L15.0435 23.3195L15.0434 23.3195L15.1334 22.9741ZM13.0905 22.2234L12.954 22.5532L12.954 22.5532L13.0905 22.2234ZM13.0878 22.2222L13.2097 21.8868L13.2171 21.8894L13.2243 21.8924L13.0878 22.2222ZM13.0877 22.2222L12.9657 22.5577L12.9585 22.5551L12.9514 22.5521L13.0877 22.2222ZM7.52226 21.1343L7.59526 21.4837L7.5951 21.4837L7.52226 21.1343ZM5.38726 21.8971L5.2235 21.5799L5.22368 21.5799L5.38726 21.8971ZM3.52321 23.1954L3.76513 23.4579L3.76471 23.4583L3.52321 23.1954ZM2.94207 23.8012L3.21163 24.0352L3.21141 24.0354L2.94207 23.8012ZM2.44518 24.4112L2.16144 24.1946L2.16302 24.1926L2.44518 24.4112ZM2.22967 24.6972L2.51506 24.9116L2.51501 24.9116L2.22967 24.6972ZM2.10036 24.8692L1.8147 24.6551L1.81501 24.6547L2.10036 24.8692ZM0.753178 26.4009L0.462357 26.6079L0.262999 26.3278L0.535411 26.1181L0.753178 26.4009ZM0.754959 26.4034L1.04578 26.1964L1.24502 26.4764L0.972899 26.6861L0.754959 26.4034ZM0.253787 26.9671L-0.0562059 26.7901L-0.0558195 26.7894L0.253787 26.9671ZM0.0146225 27.6903L0.368844 27.7344L0.368782 27.7349L0.0146225 27.6903ZM0.0717324 28.4403L-0.272193 28.5358L-0.272299 28.5355L0.0717324 28.4403ZM0.413346 29.1121L0.694082 28.8916L0.694287 28.8918L0.413346 29.1121ZM2.84676 31.6768L2.61272 31.9464L2.61269 31.9463L2.84676 31.6768ZM5.5479 33.5594L5.38108 33.875L5.3809 33.8749L5.5479 33.5594ZM9.37382 34.3719L9.35304 34.0155L9.35311 34.0155L9.37382 34.3719ZM13.3693 33.1682L13.5414 33.481L13.5413 33.481L13.3693 33.1682ZM14.5555 32.4875L14.3705 32.1822L14.9956 31.8035L14.91 32.5293L14.5555 32.4875ZM14.5266 32.7327L14.1719 32.6923L14.1721 32.6909L14.5266 32.7327ZM16.4884 43.5426L16.8064 43.3803L16.8064 43.3804L16.4884 43.5426ZM21.7861 49.9555L22.0056 49.6739L22.2151 49.8372L22.1188 50.0848L21.7861 49.9555ZM21.3231 51.3762L20.9781 51.2848L20.9781 51.2847L21.3231 51.3762ZM20.9558 53.4201L20.6005 53.3858L20.6005 53.3856L20.9558 53.4201ZM20.923 53.7603L21.2783 53.7946L21.2783 53.7947L20.923 53.7603ZM20.9229 53.7612L21.2782 53.7956L21.2782 53.7956L20.9229 53.7612ZM30.2758 67.0543L30.3289 66.7013L30.3291 66.7014L30.2758 67.0543ZM31.8168 67.2L31.7965 67.5564L31.7959 67.5563L31.8168 67.2ZM33.6487 67.2478L33.6491 67.6048L33.6489 67.6048L33.6487 67.2478ZM35.3657 67.2L35.3885 67.5562L35.388 67.5562L35.3657 67.2ZM36.7532 67.049L36.8151 67.4005L36.8149 67.4006L36.7532 67.049ZM46.076 53.7846L45.7207 53.8191L45.7207 53.819L46.076 53.7846ZM46.0464 53.4787L45.6911 53.5131L45.6911 53.513L46.0464 53.4787ZM45.6737 51.3797L46.0187 51.2883L46.0188 51.2885L45.6737 51.3797ZM45.3564 50.3495L45.0197 50.4681L45.0109 50.4432L45.0059 50.4173L45.3564 50.3495ZM45.2072 49.9465L45.4271 50.2277L44.9862 49.6662L45.2072 49.9465ZM45.2611 49.9041L45.0401 49.6237L45.4794 49.2775L45.6084 49.8217L45.2611 49.9041ZM50.4995 43.5391L50.8175 43.7012L50.8174 43.7013L50.4995 43.5391ZM52.4496 32.6321L52.8037 32.5871L52.804 32.59L52.4496 32.6321ZM52.4153 32.3622L52.0612 32.4072L51.9667 31.6636L52.6036 32.0589L52.4153 32.3622ZM53.8028 33.1682L53.6309 33.4811L53.6303 33.4807L53.8028 33.1682ZM57.7986 34.3719L57.8194 34.0155L57.8194 34.0155L57.7986 34.3719ZM61.6242 33.5594L61.7913 33.8749L61.791 33.8751L61.6242 33.5594ZM64.3236 31.6779L64.0895 31.4084L64.0896 31.4083L64.3236 31.6779ZM66.7588 29.1178L66.478 28.8973L66.4783 28.8969L66.7588 29.1178ZM67.1007 28.4403L66.7569 28.3445L66.7569 28.3445L67.1007 28.4403ZM67.1582 27.6903L67.5124 27.646L67.5125 27.6467L67.1582 27.6903ZM66.9183 26.9671L66.6084 27.1442V27.1442L66.9183 26.9671ZM66.4189 26.4009L66.2016 26.6841L66.2011 26.6837L66.4189 26.4009ZM65.0746 24.8731L65.3598 24.6585L65.3603 24.6591L65.0746 24.8731ZM65.0435 24.8318L64.7583 25.0465L64.7583 25.0464L65.0435 24.8318ZM64.9518 24.7099L65.237 24.4952L65.237 24.4953L64.9518 24.7099ZM64.8391 24.56L65.1242 24.3453L65.1243 24.3454L64.8391 24.56ZM64.7266 24.4112L65.009 24.1929L65.0104 24.1947L64.7266 24.4112ZM64.2297 23.8012L63.9604 24.0355L63.9602 24.0353L64.2297 23.8012ZM63.6453 23.1983L63.4041 23.4613L63.147 23.2256L63.3768 22.9631L63.6453 23.1983ZM63.6478 23.1954L63.89 22.9332L64.1454 23.169L63.9164 23.4305L63.6478 23.1954ZM61.7859 21.8975L61.9495 21.5802L61.9499 21.5804L61.7859 21.8975ZM59.6499 21.1339L59.7228 20.7845L59.7228 20.7845L59.6499 21.1339ZM54.085 22.2221L54.2214 22.5519L54.2209 22.5521L54.085 22.2221ZM54.0827 22.223L53.9461 21.8932L53.9468 21.893L54.0827 22.223ZM34.5293 64.5131L34.7795 64.2585L35.372 64.8407L34.5418 64.8698L34.5293 64.5131ZM33.6487 64.5285L33.6491 64.8854H33.6487V64.5285ZM34.5258 64.5096L34.2756 64.7643L33.668 64.1673L34.5197 64.1527L34.5258 64.5096ZM42.6575 61.9999L42.335 61.8468L42.5535 61.3867L42.9114 61.749L42.6575 61.9999ZM42.7363 62.0704L42.6609 61.7215L42.6647 61.7207L42.7363 62.0704ZM42.9697 61.4525L42.6292 61.3452L42.6394 61.313L42.6554 61.2832L42.9697 61.4525ZM43.4106 54.1454L43.0582 54.2021L43.0564 54.1909L43.0553 54.1796L43.4106 54.1454ZM43.3081 53.3834L43.2484 53.0314L43.5996 52.9718L43.6599 53.3229L43.3081 53.3834ZM43.2779 53.3885L43.3381 53.7404L42.9924 53.7994L42.9272 53.4549L43.2779 53.3885ZM43.026 52.1897L42.6781 52.2698L42.5877 51.8772L42.9883 51.8347L43.026 52.1897ZM43.0293 52.1893L43.3715 52.0875L43.494 52.499L43.067 52.5443L43.0293 52.1893ZM43.0145 52.14L42.6729 52.2435L42.6694 52.2322L42.6668 52.2206L43.0145 52.14ZM42.2955 49.4957L41.9545 49.6012L41.9362 49.542L41.9389 49.48L42.2955 49.4957ZM42.3321 49.3237L41.9909 49.2189L41.9909 49.2189L42.3321 49.3237ZM42.3697 49.1944L42.0247 49.1026L42.0247 49.1025L42.3697 49.1944ZM43.095 48.1321L42.8839 47.8442L42.8858 47.8429L43.095 48.1321ZM43.1118 48.12L42.9026 47.8307L42.9962 47.763H43.1118V48.12ZM43.1171 48.12L43.3275 48.4084L43.2335 48.4769H43.1171V48.12ZM48.0679 42.3018L47.7499 42.1396L47.7499 42.1396L48.0679 42.3018ZM49.7413 32.9523L50.0957 32.91L50.0958 32.9101L49.7413 32.9523ZM49.3993 31.0386L49.7462 30.9542L49.7462 30.9542L49.3993 31.0386ZM49.4818 29.8602L49.8128 29.9939L49.8126 29.9944L49.4818 29.8602ZM50.2443 28.9553L50.0539 28.6534L50.0539 28.6533L50.2443 28.9553ZM51.3855 28.6594L51.4069 28.3031L51.407 28.3031L51.3855 28.6594ZM52.487 29.0914L52.2615 29.368L52.2615 29.368L52.487 29.0914ZM53.7007 29.9559L53.51 30.2577L53.5097 30.2575L53.7007 29.9559ZM55.1143 30.7798L54.9424 31.0927L54.9419 31.0923L55.1143 30.7798ZM57.9479 31.6529L57.9271 32.0093L57.927 32.0093L57.9479 31.6529ZM60.3552 31.1492L60.5222 31.4648L60.522 31.4648L60.3552 31.1492ZM62.543 29.62L62.7771 29.8895L62.7771 29.8895L62.543 29.62ZM64.1412 28.0098L64.3944 27.7582L64.6271 27.9925L64.4116 28.2427L64.1412 28.0098ZM62.9057 26.5134L63.1912 26.2991L63.1912 26.2991L62.9057 26.5134ZM62.8993 26.5048L62.6138 26.7191L62.6137 26.719L62.8993 26.5048ZM62.5727 26.075L62.8545 25.8559L62.8556 25.8573L62.5727 26.075ZM62.1722 25.5817L62.441 25.3469L62.442 25.348L62.1722 25.5817ZM61.8081 25.2005V24.8435H61.9464L62.0486 24.9367L61.8081 25.2005ZM61.8031 25.2005V25.5574H61.6634L61.5608 25.4627L61.8031 25.2005ZM60.5376 24.3184L60.3738 24.6355L60.3737 24.6355L60.5376 24.3184ZM59.0951 23.7997L59.0222 24.1492L59.0222 24.1492L59.0951 23.7997ZM55.1168 24.74L55.2533 25.0698L55.2524 25.0702L55.1168 24.74ZM55.1161 24.7402L55.2518 25.0704L55.2278 25.0803L55.2027 25.0865L55.1161 24.7402ZM55.1161 24.7402L54.9565 24.421L54.9915 24.4035L55.0295 24.3939L55.1161 24.7402ZM55.1161 24.7403L55.2757 25.0596L55.2643 25.0653L55.2524 25.0702L55.1161 24.7403ZM52.7216 25.6081L52.8117 25.9535L52.8114 25.9536L52.7216 25.6081ZM48.9485 26.0297L48.9347 25.673L48.935 25.673L48.9485 26.0297ZM48.3534 26.054L48.3372 25.6974L48.3382 25.6973L48.3534 26.054ZM47.4371 25.8676L47.2828 26.1895L47.2824 26.1893L47.4371 25.8676ZM46.7142 25.2683L47.0024 25.0576L47.0026 25.0578L46.7142 25.2683ZM46.4223 24.8845L46.7038 24.6652L46.7044 24.6659L46.4223 24.8845ZM46.1231 24.5044L45.8484 24.7323L45.8475 24.7312L46.1231 24.5044ZM45.738 23.7573L45.392 23.8454L45.302 23.4916L45.6576 23.4095L45.738 23.7573ZM45.7426 23.7562L46.0885 23.6679L46.1788 24.0218L45.823 24.104L45.7426 23.7562ZM45.7162 22.9238L46.0669 22.9903L46.0669 22.9905L45.7162 22.9238ZM46.0471 22.1481L46.3363 22.3573L46.3359 22.3578L46.0471 22.1481ZM46.6811 21.5909L46.5083 21.2785L46.5089 21.2781L46.6811 21.5909ZM52.6373 13.9676L52.9804 14.0661L52.9804 14.0661L52.6373 13.9676ZM52.96 6.04834L52.6138 5.96132L53.3127 5.99325L52.96 6.04834ZM48.8118 14.0182L48.551 13.7745L48.551 13.7745L48.8118 14.0182ZM18.148 14.0329L17.8874 14.2769L17.791 14.1739V14.0329H18.148ZM18.148 14.0275L18.4085 13.7835L18.5049 13.8865V14.0275H18.148ZM13.9847 6.04264L13.6321 5.98734L14.3309 5.95554L13.9847 6.04264ZM14.3063 13.9825L13.9633 14.0814L13.9633 14.0813L14.3063 13.9825ZM20.2855 21.6058V21.9628H20.1942L20.1141 21.919L20.2855 21.6058ZM20.2908 21.6058V21.2489H20.3824L20.4627 21.293L20.2908 21.6058ZM20.9201 22.1623L20.6318 22.3728L20.6316 22.3725L20.9201 22.1623ZM21.2567 22.933L21.6072 22.8653L21.6072 22.8653L21.2567 22.933ZM21.2353 23.7723L21.5813 23.8602L21.4936 24.205L21.1485 24.1185L21.2353 23.7723ZM21.2339 23.7719L20.8881 23.6834L20.9762 23.3393L21.3207 23.4256L21.2339 23.7719ZM20.8502 24.5194L20.5741 24.2931L20.5745 24.2926L20.8502 24.5194ZM20.56 24.8842L20.8421 25.1029L20.8415 25.1037L20.56 24.8842ZM20.2776 25.2608L20.5663 25.4707L20.5655 25.4719L20.2776 25.2608ZM19.5605 25.8598L19.7155 26.1813L19.715 26.1815L19.5605 25.8598ZM18.6459 26.0465L18.66 25.6898L18.6605 25.6898L18.6459 26.0465ZM18.2208 26.0297L18.2343 25.673L18.2349 25.673L18.2208 26.0297ZM14.4513 25.6081L14.5412 25.2627L14.5412 25.2627L14.4513 25.6081ZM12.0579 24.7407L12.1941 24.4108L12.1943 24.4109L12.0579 24.7407ZM12.056 24.74L11.9198 25.0699L11.9195 25.0698L12.056 24.74ZM8.07698 23.8001L8.15003 24.1495L8.14986 24.1495L8.07698 23.8001ZM6.63485 24.318L6.47119 24.0008L6.4712 24.0008L6.63485 24.318ZM5.36799 25.2005L5.60995 25.4629L5.60906 25.4637L5.36799 25.2005ZM4.99996 25.5817L4.73043 25.3476L4.73073 25.3473L4.99996 25.5817ZM4.59945 26.075L4.31665 25.8572L4.31736 25.8563L4.59945 26.075ZM4.27568 26.5009L4.5616 26.7146L4.56132 26.715L4.27568 26.5009ZM3.02881 28.0119L2.75866 28.2452L2.54253 27.995L2.77554 27.7604L3.02881 28.0119ZM4.62765 29.6189L4.86166 29.3494L4.8617 29.3494L4.62765 29.6189ZM6.81654 31.1492L6.6497 31.4648L6.64965 31.4648L6.81654 31.1492ZM9.22425 31.6529L9.24515 32.0093L9.24501 32.0093L9.22425 31.6529ZM12.0578 30.7798L12.2302 31.0924L12.2297 31.0926L12.0578 30.7798ZM13.3568 30.0259L13.5456 30.3288L13.5453 30.329L13.3568 30.0259ZM14.4934 29.2434L14.2745 28.9614L14.2746 28.9613L14.4934 29.2434ZM15.5878 28.8408L15.6038 29.1974L15.6038 29.1974L15.5878 28.8408ZM16.713 29.1445L16.9052 28.8438L16.9054 28.8439L16.713 29.1445ZM17.4615 30.0416L17.7922 29.907L17.7923 29.9073L17.4615 30.0416ZM17.5508 31.1992L17.8985 31.2798L17.8985 31.2799L17.5508 31.1992ZM17.2349 33.0372L16.8802 32.9967L16.8802 32.9966L17.2349 33.0372ZM18.9197 42.3057L18.6018 42.468L18.6017 42.468L18.9197 42.3057ZM23.8686 48.1217L24.0791 47.8334L24.0807 47.8346L23.8686 48.1217ZM23.8836 48.1328V48.4898H23.7661L23.6716 48.42L23.8836 48.1328ZM23.8893 48.1328V47.7758H24.005L24.0987 47.8437L23.8893 48.1328ZM24.6222 49.1955L24.9669 49.1027L24.9669 49.1029L24.6222 49.1955ZM24.5169 50.4795L24.843 50.6247L24.6791 50.9927L24.3335 50.7857L24.5169 50.4795ZM24.5151 50.4784L24.1958 50.3188L24.368 49.9743L24.6985 50.1721L24.5151 50.4784ZM24.5105 50.4877L24.3699 50.8158L24.0219 50.6668L24.1912 50.3281L24.5105 50.4877ZM24.5155 50.4898L24.656 50.1617L24.9882 50.304L24.8418 50.6344L24.5155 50.4898ZM24.2105 51.2543L24.5469 51.374L24.5433 51.3834L24.2105 51.2543ZM30.1584 64.3384L30.1275 64.694L30.1584 64.3384ZM32.665 64.4924L32.677 64.1356L32.8015 64.1398L32.8963 64.2206L32.665 64.4924ZM32.6888 64.5127L32.677 64.8695L32.5521 64.8654L32.457 64.7842L32.6888 64.5127ZM49.0812 22.9447C50.1036 22.9046 51.0936 22.8513 51.9492 22.6286L52.129 23.3195C51.1875 23.5645 50.1222 23.6183 49.1092 23.6581L49.0812 22.9447ZM55.6034 14.8121C54.2508 19.5221 51.3006 22.2335 49.2959 23.5966L48.8945 23.0062C50.8071 21.7057 53.624 19.1183 54.9172 14.6151L55.6034 14.8121ZM55.021 1.28072C56.7104 6.9609 56.5837 11.3981 55.6034 14.8121L54.9172 14.6151C55.8545 11.351 55.9933 7.05411 54.3367 1.48425L55.021 1.28072ZM54.1024 0.0294952C54.5334 0.318794 54.8648 0.753189 55.0211 1.28117L54.3365 1.4838C54.2286 1.11937 54.001 0.821281 53.7045 0.622253L54.1024 0.0294952ZM52.6052 -0.345596C53.1492 -0.399704 53.6737 -0.258324 54.1024 0.0294952L53.7045 0.622253C53.4101 0.424614 53.0507 0.327545 52.6759 0.364822L52.6052 -0.345596ZM51.2008 0.324455C51.5652 -0.046257 52.0557 -0.291161 52.6054 -0.345612L52.6757 0.364838C52.2958 0.402473 51.9596 0.57093 51.71 0.824898L51.2008 0.324455ZM50.5504 1.73746C50.5969 1.18912 50.8354 0.696198 51.2009 0.32444L51.71 0.824913C51.4572 1.08212 51.2937 1.42093 51.2617 1.79784L50.5504 1.73746ZM46.5566 11.9193C49.446 8.82868 50.3156 4.57721 50.5503 1.73824L51.2618 1.79706C51.0225 4.69162 50.1322 9.14005 47.0782 12.4069L46.5566 11.9193ZM20.3918 11.9227C21.5682 13.1786 23.4753 14.1477 25.7924 14.8013C28.1025 15.453 30.7853 15.7813 33.4746 15.7815C36.1639 15.7816 38.8466 15.4537 41.1566 14.8017C43.4735 14.1477 45.3804 13.1777 46.5566 11.9194L47.0782 12.4069C45.7759 13.8001 43.7274 14.8179 41.3506 15.4888C38.9668 16.1616 36.2174 16.4956 33.4746 16.4954C30.7317 16.4952 27.9823 16.1609 25.5985 15.4884C23.2217 14.8179 21.1732 13.8013 19.8707 12.4107L20.3918 11.9227ZM19.8766 11.9165L19.8791 11.914L20.3834 12.4194L20.3809 12.4219L19.8766 11.9165ZM16.3944 1.73779C16.6302 4.58139 17.4999 8.83865 20.3893 11.9252L19.8682 12.4131C16.8135 9.15006 15.9233 4.69529 15.6829 1.7968L16.3944 1.73779ZM15.7441 0.323944C16.11 0.69574 16.3487 1.1889 16.3944 1.73765L15.6829 1.79694C15.6516 1.42045 15.4883 1.08188 15.2352 0.824707L15.7441 0.323944ZM14.3392 -0.345665C14.8895 -0.291985 15.3797 -0.0463867 15.7441 0.323959L15.2352 0.824692C14.985 0.570358 14.6491 0.401878 14.2699 0.364891L14.3392 -0.345665ZM12.8431 0.0290985C13.2715 -0.258347 13.7959 -0.399696 14.3399 -0.345596L14.2692 0.364822C13.8944 0.327538 13.5349 0.424637 13.2409 0.621948L12.8431 0.0290985ZM11.924 1.28064C12.0799 0.752663 12.4119 0.31826 12.8432 0.0290527L13.2408 0.621994C12.9438 0.821114 12.7161 1.11919 12.6086 1.48291L11.924 1.28064ZM11.3511 14.8271C10.365 11.4064 10.2335 6.96331 11.9241 1.28L12.6084 1.48355C10.9508 7.05598 11.0942 11.3585 12.0371 14.6294L11.3511 14.8271ZM17.6399 23.5868C15.6382 22.2225 12.7029 19.5184 11.3511 14.8271L12.0371 14.6294C13.3296 19.1149 16.1321 21.6952 18.042 22.9968L17.6399 23.5868ZM15.2233 22.6286C16.011 22.8336 16.9157 22.8955 17.856 22.9351L17.8259 23.6484C16.8865 23.6088 15.9128 23.5458 15.0435 23.3195L15.2233 22.6286ZM13.227 21.8936C13.9549 22.1948 14.6357 22.4755 15.2234 22.6287L15.0434 23.3195C14.3982 23.1514 13.6682 22.8488 12.954 22.5532L13.227 21.8936ZM13.2243 21.8924L13.2271 21.8936L12.954 22.5532L12.9512 22.5521L13.2243 21.8924ZM13.2097 21.8868L13.2097 21.8868L12.9658 22.5577L12.9657 22.5577L13.2097 21.8868ZM7.44925 20.7849C9.5233 20.3515 11.4767 21.1701 13.2241 21.8923L12.9514 22.5521C11.1629 21.8129 9.41791 21.1029 7.59526 21.4837L7.44925 20.7849ZM5.22368 21.5799C5.92672 21.2174 6.68177 20.9449 7.44941 20.7849L7.5951 21.4837C6.89349 21.63 6.19927 21.8801 5.55085 22.2144L5.22368 21.5799ZM3.28128 22.9329C3.85725 22.4021 4.51738 21.9445 5.2235 21.5799L5.55102 22.2143C4.89927 22.5508 4.29217 22.9721 3.76513 23.4579L3.28128 22.9329ZM2.67251 23.5672C2.86858 23.3413 3.07118 23.126 3.2817 22.9325L3.76471 23.4583C3.57971 23.6282 3.39608 23.8227 3.21163 24.0352L2.67251 23.5672ZM2.16302 24.1926C2.32619 23.982 2.49493 23.7713 2.67273 23.5669L3.21141 24.0354C3.04581 24.2258 2.88614 24.4249 2.72734 24.6299L2.16302 24.1926ZM1.94428 24.4827C2.03644 24.3601 2.11821 24.2512 2.16144 24.1946L2.72891 24.6278C2.68781 24.6817 2.60826 24.7875 2.51506 24.9116L1.94428 24.4827ZM1.81501 24.6547L1.94433 24.4827L2.51501 24.9116L2.3857 25.0837L1.81501 24.6547ZM0.535411 26.1181C0.958687 25.7922 1.36865 25.2504 1.8147 24.6551L2.38601 25.0833C1.95893 25.6532 1.48791 26.2857 0.970946 26.6838L0.535411 26.1181ZM0.464138 26.6104L0.462357 26.6079L1.044 26.1939L1.04578 26.1964L0.464138 26.6104ZM-0.0558195 26.7894C0.0902351 26.5349 0.289795 26.3113 0.537019 26.1207L0.972899 26.6861C0.793196 26.8247 0.658645 26.9787 0.563393 27.1447L-0.0558195 26.7894ZM-0.339598 27.6461C-0.301379 27.3395 -0.206309 27.053 -0.0562052 26.7901L0.563779 27.1441C0.461153 27.3238 0.395591 27.5199 0.368843 27.7344L-0.339598 27.6461ZM-0.272299 28.5355C-0.353629 28.2416 -0.377088 27.9435 -0.339537 27.6456L0.368782 27.7349C0.343508 27.9354 0.358593 28.1385 0.415763 28.345L-0.272299 28.5355ZM0.13261 29.3325C-0.0566943 29.0915 -0.191927 28.8246 -0.272193 28.5358L0.415658 28.3447C0.470324 28.5413 0.56212 28.7235 0.694081 28.8916L0.13261 29.3325ZM2.61269 31.9463C1.69615 31.1503 0.852447 30.2509 0.132405 29.3323L0.694287 28.8918C1.38782 29.7766 2.20042 30.6427 3.08083 31.4073L2.61269 31.9463ZM5.3809 33.8749C4.41001 33.361 3.47504 32.6951 2.61272 31.9464L3.0808 31.4073C3.90977 32.1271 4.80031 32.7598 5.7149 33.244L5.3809 33.8749ZM9.3946 34.7283C8.04378 34.807 6.67435 34.5586 5.38108 33.875L5.71471 33.2439C6.88234 33.861 8.12016 34.0874 9.35304 34.0155L9.3946 34.7283ZM13.5413 33.481C12.2701 34.1798 10.8502 34.6437 9.39453 34.7283L9.35311 34.0155C10.686 33.9381 12.0034 33.5117 13.1974 32.8554L13.5413 33.481ZM14.7404 32.7928C14.3517 33.0283 13.9519 33.2551 13.5414 33.481L13.1972 32.8555C13.6028 32.6323 13.9933 32.4107 14.3705 32.1822L14.7404 32.7928ZM14.1721 32.6909L14.201 32.4457L14.91 32.5293L14.8811 32.7745L14.1721 32.6909ZM14.0443 34.9038C14.0443 34.169 14.0876 33.4312 14.1719 32.6923L14.8812 32.7732C14.7999 33.4863 14.7582 34.1971 14.7582 34.9038H14.0443ZM16.1705 43.7049C14.7937 41.0076 14.0443 37.9946 14.0443 34.9038H14.7582C14.7582 37.8791 15.4796 40.7811 16.8064 43.3803L16.1705 43.7049ZM21.5667 50.237C19.2833 48.4572 17.4515 46.2157 16.1705 43.7049L16.8064 43.3804C18.0405 45.7992 19.8055 47.959 22.0056 49.6739L21.5667 50.237ZM20.9781 51.2847C21.1093 50.7899 21.268 50.3032 21.4534 49.8262L22.1188 50.0848C21.943 50.5372 21.7926 50.9986 21.6682 51.4677L20.9781 51.2847ZM20.6005 53.3856C20.6699 52.6713 20.7968 51.9691 20.9781 51.2848L21.6682 51.4676C21.4968 52.1147 21.3767 52.7789 21.3111 53.4546L20.6005 53.3856ZM20.5677 53.726L20.6005 53.3858L21.3111 53.4544L21.2783 53.7946L20.5677 53.726ZM20.5676 53.7268L20.5677 53.7259L21.2783 53.7947L21.2782 53.7956L20.5676 53.7268ZM30.2226 67.4073C24.9329 66.6103 22.2877 64.9063 21.1044 62.4489C20.5199 61.2351 20.3101 59.8712 20.2822 58.4115C20.2543 56.9543 20.4079 55.3742 20.5676 53.7268L21.2782 53.7956C21.1175 55.4533 20.9691 56.9899 20.996 58.3979C21.0229 59.8035 21.2248 61.0534 21.7476 62.1391C22.7789 64.2807 25.1305 65.9181 30.3289 66.7013L30.2226 67.4073ZM31.7959 67.5563C31.1921 67.521 30.6464 67.4713 30.2224 67.4073L30.3291 66.7014C30.7226 66.7608 31.2442 66.8089 31.8376 66.8436L31.7959 67.5563ZM33.6489 67.6048C32.9948 67.6051 32.3571 67.5882 31.7965 67.5564L31.837 66.8436C32.3823 66.8746 33.0062 66.8912 33.6485 66.8908L33.6489 67.6048ZM35.388 67.5562C34.8722 67.5886 34.2734 67.604 33.6491 67.6048L33.6483 66.8908C34.2626 66.8901 34.8461 66.8749 35.3433 66.8437L35.388 67.5562ZM36.8149 67.4006C36.4149 67.4708 35.9242 67.5218 35.3885 67.5562L35.3428 66.8437C35.8645 66.8103 36.3269 66.7614 36.6915 66.6974L36.8149 67.4006ZM46.4313 53.7501C46.5901 55.3839 46.7417 56.9398 46.7121 58.3722C46.6825 59.8074 46.4711 61.1456 45.8867 62.3431C44.7054 64.7638 42.073 66.4748 36.8151 67.4005L36.6913 66.6974C41.8663 65.7863 44.2139 64.1432 45.2451 62.03C45.767 60.9606 45.9699 59.7369 45.9984 58.3574C46.0269 56.9751 45.8805 55.4635 45.7207 53.8191L46.4313 53.7501ZM46.4017 53.4443L46.4313 53.7502L45.7207 53.819L45.6911 53.5131L46.4017 53.4443ZM46.0188 51.2885C46.2024 51.9833 46.3299 52.7009 46.4017 53.4444L45.6911 53.513C45.6229 52.8065 45.502 52.127 45.3286 51.4709L46.0188 51.2885ZM45.6931 50.231C45.8151 50.5776 45.9239 50.9303 46.0187 51.2883L45.3287 51.4712C45.2386 51.1316 45.1354 50.7969 45.0197 50.4681L45.6931 50.231ZM45.6086 49.8227C45.6443 49.9747 45.6771 50.1277 45.7068 50.2818L45.0059 50.4173C44.9779 50.2724 44.9471 50.1286 44.9136 49.9859L45.6086 49.8227ZM44.9872 49.6654L45.0412 49.6232L45.4811 50.1855L45.4271 50.2277L44.9872 49.6654ZM45.482 50.1844L45.4281 50.2269L44.9862 49.6662L45.0401 49.6237L45.482 50.1844ZM44.9138 49.9866L44.9137 49.9864L45.6084 49.8217L45.6085 49.822L44.9138 49.9866ZM50.8174 43.7013C49.5478 46.1894 47.7372 48.4136 45.4816 50.1851L45.0406 49.6236C47.214 47.9168 48.9584 45.7738 50.1815 43.3768L50.8174 43.7013ZM52.9422 34.9038C52.9422 37.9922 52.1932 41.004 50.8175 43.7012L50.1815 43.3769C51.5073 40.7775 52.2282 37.8766 52.2282 34.9038H52.9422ZM52.804 32.59C52.8949 33.3553 52.9422 34.1279 52.9422 34.9038H52.2282C52.2282 34.1569 52.1827 33.4124 52.0951 32.6741L52.804 32.59ZM52.7694 32.3172L52.8037 32.5871L52.0955 32.677L52.0612 32.4072L52.7694 32.3172ZM53.6303 33.4807C53.1582 33.2201 52.6937 32.9552 52.227 32.6655L52.6036 32.0589C53.0558 32.3397 53.5086 32.598 53.9753 32.8557L53.6303 33.4807ZM57.7779 34.7283C56.3219 34.6437 54.9024 34.1798 53.6309 33.4811L53.9747 32.8554C55.1691 33.5117 56.4861 33.9381 57.8194 34.0155L57.7779 34.7283ZM61.791 33.8751C60.4974 34.5586 59.128 34.807 57.7779 34.7283L57.8194 34.0155C59.0516 34.0874 60.2894 33.8611 61.4574 33.2438L61.791 33.8751ZM64.5576 31.9474C63.6963 32.6955 62.761 33.3614 61.7913 33.8749L61.4572 33.244C62.3708 32.7602 63.2617 32.1274 64.0895 31.4084L64.5576 31.9474ZM67.0395 29.3382C66.3265 30.2462 65.4835 31.1438 64.5575 31.9475L64.0896 31.4083C64.9799 30.6356 65.7918 29.7712 66.478 28.8973L67.0395 29.3382ZM67.4446 28.536C67.363 28.8291 67.228 29.0989 67.0392 29.3386L66.4783 28.8969C66.6072 28.7333 66.6999 28.549 66.7569 28.3445L67.4446 28.536ZM67.5125 27.6467C67.549 27.9435 67.5267 28.2414 67.4446 28.536L66.7569 28.3445C66.814 28.1393 66.8288 27.9361 66.8039 27.7339L67.5125 27.6467ZM67.2282 26.7899C67.3786 27.053 67.4742 27.3399 67.5124 27.646L66.804 27.7345C66.7773 27.5209 66.7115 27.3245 66.6084 27.1442L67.2282 26.7899ZM66.6363 26.1178C66.8808 26.3054 67.0797 26.53 67.2282 26.7899L66.6084 27.1442C66.5093 26.9707 66.3748 26.817 66.2016 26.6841L66.6363 26.1178ZM65.3603 24.6591C65.8051 25.2526 66.2141 25.7925 66.6368 26.1181L66.2011 26.6837C65.685 26.2861 65.2151 25.6559 64.789 25.0872L65.3603 24.6591ZM65.3288 24.6172L65.3598 24.6585L64.7894 25.0878L64.7583 25.0465L65.3288 24.6172ZM65.237 24.4953L65.3288 24.6173L64.7583 25.0464L64.6665 24.9244L65.237 24.4953ZM65.1243 24.3454L65.237 24.4952L64.6665 24.9245L64.5538 24.7746L65.1243 24.3454ZM65.0104 24.1947C65.0352 24.2273 65.0757 24.2808 65.1242 24.3453L64.5539 24.7748C64.5052 24.71 64.466 24.6582 64.4428 24.6277L65.0104 24.1947ZM64.499 23.5669C64.6771 23.7716 64.8458 23.9819 65.009 24.1929L64.4442 24.6296C64.2861 24.4251 64.1264 24.2263 63.9604 24.0355L64.499 23.5669ZM63.8866 22.9352C64.1133 23.143 64.3147 23.3547 64.4992 23.5671L63.9602 24.0353C63.7906 23.84 63.6079 23.6483 63.4041 23.4613L63.8866 22.9352ZM63.9164 23.4305L63.9139 23.4334L63.3768 22.9631L63.3793 22.9603L63.9164 23.4305ZM61.9499 21.5804C62.6551 21.9452 63.3152 22.4024 63.89 22.9332L63.4057 23.4577C62.8803 22.9725 62.2732 22.5515 61.6219 22.2145L61.9499 21.5804ZM59.7228 20.7845C60.4911 20.9449 61.2458 21.2174 61.9495 21.5802L61.6223 22.2148C60.9732 21.8801 60.2793 21.63 59.5769 21.4834L59.7228 20.7845ZM53.9486 21.8922C55.6947 21.1702 57.6479 20.3515 59.7228 20.7845L59.5769 21.4834C57.7534 21.1028 56.0085 21.8131 54.2214 22.5519L53.9486 21.8922ZM53.9468 21.893L53.9491 21.892L54.2209 22.5521L54.2186 22.5531L53.9468 21.893ZM51.9492 22.6286C52.5375 22.4755 53.2178 22.1948 53.9461 21.8932L54.2193 22.5528C53.5047 22.8488 52.775 23.1514 52.129 23.3195L51.9492 22.6286ZM34.5418 64.8698C34.2421 64.8804 33.9425 64.8851 33.6491 64.8854L33.6483 64.1715C33.9347 64.1711 34.2262 64.1666 34.5168 64.1564L34.5418 64.8698ZM34.7759 64.255C34.7764 64.2555 34.7769 64.2559 34.7775 64.2565C34.7781 64.2571 34.7788 64.2578 34.7795 64.2585L34.2791 64.7677C34.276 64.7646 34.2794 64.7679 34.2756 64.7643L34.7759 64.255ZM42.98 62.153C42.6926 62.7583 41.9403 63.4083 40.616 63.9173C39.2803 64.4306 37.3187 64.8188 34.5319 64.8665L34.5197 64.1527C37.2514 64.1059 39.1248 63.7256 40.3598 63.2509C41.6063 62.7718 42.1606 62.2143 42.335 61.8468L42.98 62.153ZM42.9114 61.749C42.933 61.7708 42.9454 61.7827 42.9508 61.7875C42.9545 61.7908 42.949 61.7856 42.9379 61.7775C42.9334 61.7742 42.9172 61.7626 42.8936 61.7507C42.8818 61.7447 42.8591 61.7341 42.8286 61.7258C42.8024 61.7187 42.7395 61.7045 42.6609 61.7215L42.8116 62.4193C42.7324 62.4364 42.6686 62.4222 42.6415 62.4148C42.61 62.4062 42.5861 62.3951 42.5729 62.3885C42.5466 62.3753 42.5271 62.3615 42.5184 62.3552C42.4992 62.3413 42.483 62.327 42.4733 62.3183C42.452 62.2991 42.4277 62.2752 42.4036 62.2508L42.9114 61.749ZM42.6647 61.7207C42.565 61.7411 42.5064 61.798 42.4921 61.812C42.4708 61.833 42.4582 61.8513 42.4541 61.8574C42.4453 61.8705 42.4429 61.8768 42.4474 61.8676C42.4549 61.8517 42.4683 61.8199 42.4875 61.7683C42.5249 61.6677 42.5737 61.5215 42.6292 61.3452L43.3102 61.5597C43.2535 61.7397 43.2004 61.8994 43.1566 62.0172C43.1352 62.0748 43.1131 62.1303 43.0916 62.1752C43.0815 62.1963 43.0663 62.2264 43.0463 62.2561C43.0367 62.2704 43.019 62.2952 42.993 62.3208C42.9741 62.3394 42.9113 62.399 42.8078 62.4201L42.6647 61.7207ZM43.7631 54.0886C44.3984 58.0341 43.8982 60.4816 43.284 61.6218L42.6554 61.2832C43.1656 60.3363 43.6808 58.0684 43.0582 54.2021L43.7631 54.0886ZM43.0553 54.1796C43.0316 53.9335 42.9983 53.688 42.9563 53.4438L43.6599 53.3229C43.7047 53.5836 43.7404 53.8466 43.7659 54.1111L43.0553 54.1796ZM43.3678 53.7353C43.358 53.737 43.348 53.7387 43.3381 53.7404L43.2178 53.0367C43.2279 53.0349 43.2381 53.0332 43.2484 53.0314L43.3678 53.7353ZM43.3738 52.1096C43.4701 52.5276 43.5547 52.9317 43.6287 53.3221L42.9272 53.4549C42.8551 53.0739 42.7723 52.6789 42.6781 52.2698L43.3738 52.1096ZM42.9883 51.8347C42.9888 51.8347 42.9893 51.8346 42.9899 51.8345C42.9905 51.8345 42.991 51.8344 42.9916 51.8344L43.067 52.5443C43.0665 52.5444 43.066 52.5444 43.0654 52.5445C43.0649 52.5445 43.0643 52.5446 43.0637 52.5447L42.9883 51.8347ZM42.6872 52.2912C42.6825 52.2753 42.6777 52.2594 42.6729 52.2435L43.3561 52.0365C43.3613 52.0535 43.3664 52.0705 43.3715 52.0875L42.6872 52.2912ZM42.6365 49.3902C42.9292 50.336 43.1688 51.2252 43.3622 52.0594L42.6668 52.2206C42.4774 51.404 42.2424 50.5314 41.9545 49.6012L42.6365 49.3902ZM42.6734 49.4285C42.6621 49.4653 42.6577 49.4803 42.6548 49.4926C42.653 49.5004 42.6524 49.5047 42.6521 49.5114L41.9389 49.48C41.9439 49.3672 41.9711 49.2835 41.9909 49.2189L42.6734 49.4285ZM42.7146 49.2862C42.6985 49.3467 42.6842 49.3933 42.6734 49.4285L41.9909 49.2189C42.0014 49.1847 42.0123 49.1491 42.0247 49.1026L42.7146 49.2862ZM43.3061 48.42C43.0071 48.6392 42.8053 48.9461 42.7146 49.2863L42.0247 49.1025C42.1561 48.6096 42.4497 48.1626 42.8839 47.8442L43.3061 48.42ZM43.321 48.4092L43.3042 48.4213L42.8858 47.8429L42.9026 47.8307L43.321 48.4092ZM43.1171 48.4769H43.1118V47.763H43.1171V48.4769ZM48.3858 42.464C47.1998 44.7887 45.4793 46.8388 43.3275 48.4084L42.9068 47.8316C44.9657 46.3298 46.6135 44.3669 47.7499 42.1396L48.3858 42.464ZM50.2121 34.9038C50.2121 37.5577 49.5684 40.1462 48.3858 42.4641L47.7499 42.1396C48.8825 39.9197 49.4982 37.4422 49.4982 34.9038H50.2121ZM50.0958 32.9101C50.1728 33.5577 50.2121 34.2229 50.2121 34.9038H49.4982C49.4982 34.2504 49.4604 33.6133 49.3868 32.9944L50.0958 32.9101ZM49.7462 30.9542C49.8975 31.5764 50.0145 32.2291 50.0957 32.91L49.3868 32.9945C49.3088 32.3404 49.1967 31.7159 49.0525 31.123L49.7462 30.9542ZM49.8126 29.9944C49.6933 30.2884 49.665 30.6206 49.7462 30.9542L49.0525 31.123C48.9359 30.6441 48.9754 30.1589 49.151 29.7261L49.8126 29.9944ZM50.4346 29.2573C50.1431 29.4411 49.9316 29.6998 49.8128 29.9939L49.1508 29.7266C49.3261 29.2925 49.6365 28.9165 50.0539 28.6534L50.4346 29.2573ZM51.364 29.0158C51.0462 28.9966 50.7234 29.0753 50.4346 29.2573L50.0539 28.6533C50.4697 28.3913 50.9408 28.2751 51.4069 28.3031L51.364 29.0158ZM52.2615 29.368C51.9975 29.1528 51.685 29.0352 51.3639 29.0157L51.407 28.3031C51.8756 28.3315 52.3312 28.5037 52.7126 28.8147L52.2615 29.368ZM53.5097 30.2575C53.0733 29.981 52.6557 29.6893 52.2615 29.368L52.7126 28.8147C53.0795 29.1138 53.4729 29.389 53.8918 29.6544L53.5097 30.2575ZM54.9419 31.0923C54.4316 30.8109 53.9476 30.5342 53.51 30.2577L53.8914 29.6542C54.3113 29.9195 54.7811 30.1883 55.2867 30.4672L54.9419 31.0923ZM57.927 32.0093C56.9013 31.9491 55.8769 31.6059 54.9424 31.0927L55.2861 30.4669C56.1493 30.941 57.0711 31.2439 57.9688 31.2966L57.927 32.0093ZM60.522 31.4648C59.6926 31.9031 58.8055 32.0604 57.9271 32.0093L57.9686 31.2966C58.7322 31.341 59.4871 31.2042 60.1884 30.8336L60.522 31.4648ZM62.7771 29.8895C62.067 30.5061 61.3044 31.0508 60.5222 31.4648L60.1883 30.8337C60.9131 30.4502 61.6312 29.939 62.309 29.3505L62.7771 29.8895ZM64.4116 28.2427C63.9107 28.8242 63.3597 29.3834 62.7771 29.8895L62.3089 29.3505C62.8637 28.8686 63.3907 28.334 63.8707 27.7768L64.4116 28.2427ZM63.1912 26.2991C63.5802 26.8174 63.9546 27.3154 64.3944 27.7582L63.8879 28.2613C63.4076 27.7776 63.0044 27.2396 62.6202 26.7277L63.1912 26.2991ZM63.1848 26.2905L63.1912 26.2991L62.6203 26.7277L62.6138 26.7191L63.1848 26.2905ZM62.8556 25.8573C63.0249 26.0773 63.1029 26.1814 63.1849 26.2906L62.6137 26.719C62.5329 26.6112 62.4567 26.5096 62.2898 26.2927L62.8556 25.8573ZM62.442 25.348C62.582 25.5097 62.7197 25.6825 62.8545 25.8559L62.2909 26.2941C62.1587 26.1241 62.03 25.9628 61.9023 25.8154L62.442 25.348ZM62.0486 24.9367C62.177 25.0539 62.3093 25.1961 62.441 25.3469L61.9033 25.8165C61.7787 25.6739 61.6668 25.5548 61.5675 25.4642L62.0486 24.9367ZM61.8031 24.8435H61.8081V25.5574H61.8031V24.8435ZM60.7015 24.0013C61.1894 24.2533 61.6461 24.5695 62.0453 24.9382L61.5608 25.4627C61.2111 25.1396 60.8076 24.8597 60.3738 24.6355L60.7015 24.0013ZM59.1681 23.4503C59.6926 23.5598 60.2128 23.7486 60.7016 24.0013L60.3737 24.6355C59.9386 24.4106 59.4794 24.2446 59.0222 24.1492L59.1681 23.4503ZM54.9803 24.4102C55.671 24.1242 56.402 23.8213 57.1048 23.6219C57.8045 23.4234 58.5178 23.3145 59.1681 23.4503L59.0222 24.1492C58.5392 24.0483 57.9583 24.1218 57.2997 24.3087C56.6441 24.4947 55.9526 24.7803 55.2533 25.0698L54.9803 24.4102ZM54.9805 24.41L54.9812 24.4098L55.2524 25.0702L55.2518 25.0704L54.9805 24.41ZM55.0295 24.3939L55.0296 24.3939L55.2027 25.0865L55.2027 25.0866L55.0295 24.3939ZM54.9564 24.421L54.9565 24.421L55.2757 25.0595L55.2757 25.0596L54.9564 24.421ZM52.6315 25.2627C53.4041 25.0612 54.1691 24.7455 54.9797 24.4104L55.2524 25.0702C54.4508 25.4016 53.6399 25.7375 52.8117 25.9535L52.6315 25.2627ZM48.935 25.673C50.1867 25.6256 51.422 25.5772 52.6317 25.2626L52.8114 25.9536C51.5145 26.2908 50.2019 26.3395 48.962 26.3864L48.935 25.673ZM48.3382 25.6973C48.6061 25.6859 48.7679 25.6794 48.9347 25.673L48.9623 26.3864C48.7963 26.3928 48.6355 26.3992 48.3687 26.4106L48.3382 25.6973ZM47.5914 25.5457C47.8233 25.6569 48.0749 25.7093 48.3372 25.6974L48.3696 26.4105C47.9887 26.4279 47.6199 26.3511 47.2828 26.1895L47.5914 25.5457ZM47.0026 25.0578C47.1561 25.2682 47.356 25.4326 47.5918 25.5459L47.2824 26.1893C46.9435 26.0264 46.6508 25.7867 46.4259 25.4788L47.0026 25.0578ZM46.7044 24.6659C46.8348 24.8341 46.9342 24.9643 47.0024 25.0576L46.4261 25.4789C46.3643 25.3945 46.2703 25.2712 46.1401 25.1032L46.7044 24.6659ZM46.3978 24.2764C46.4441 24.3322 46.5487 24.4661 46.7038 24.6652L46.1407 25.1039C45.981 24.899 45.8857 24.7772 45.8484 24.7323L46.3978 24.2764ZM46.0839 23.6692C46.1383 23.8829 46.2422 24.0874 46.3987 24.2775L45.8475 24.7312C45.6285 24.4652 45.474 24.1671 45.392 23.8454L46.0839 23.6692ZM45.823 24.104L45.8183 24.1051L45.6576 23.4095L45.6622 23.4084L45.823 24.104ZM46.0669 22.9905C46.0239 23.2164 46.031 23.4426 46.0885 23.6679L45.3967 23.8445C45.3136 23.5186 45.3028 23.1866 45.3655 22.857L46.0669 22.9905ZM46.3359 22.3578C46.2041 22.5393 46.1124 22.7507 46.0669 22.9903L45.3655 22.8572C45.4299 22.5179 45.5624 22.208 45.7583 21.9383L46.3359 22.3578ZM46.8538 21.9032C46.6426 22.0201 46.4698 22.1728 46.3363 22.3573L45.7579 21.9388C45.955 21.6664 46.2084 21.4444 46.5083 21.2785L46.8538 21.9032ZM52.9804 14.0661C51.6201 18.8029 48.3394 21.0853 46.8532 21.9036L46.5089 21.2781C47.9027 20.5108 51.0058 18.3555 52.2942 13.869L52.9804 14.0661ZM53.3127 5.99325C53.8203 9.24286 53.6012 11.9033 52.9804 14.0661L52.2942 13.8691C52.8835 11.8161 53.1006 9.2613 52.6073 6.10344L53.3127 5.99325ZM48.551 13.7745C50.7497 11.4228 51.9584 8.5687 52.6138 5.96132L53.3062 6.13537C52.6316 8.81889 51.3786 11.7955 49.0725 14.262L48.551 13.7745ZM18.4085 13.7889C19.8203 15.2963 21.9977 16.4935 24.6013 17.3249C27.2004 18.1548 30.1983 18.6117 33.223 18.6568C39.2963 18.7476 45.3674 17.1799 48.551 13.7745L49.0725 14.262C45.6834 17.8873 39.3593 19.4625 33.2123 19.3707C30.1267 19.3246 27.0582 18.8588 24.3842 18.005C21.7147 17.1526 19.4123 15.905 17.8874 14.2769L18.4085 13.7889ZM18.5049 14.0275V14.0329H17.791V14.0275H18.5049ZM14.3309 5.95554C14.9877 8.56637 16.2002 11.4261 18.4085 13.7835L17.8874 14.2716C15.5716 11.7993 14.3146 8.81694 13.6385 6.12973L14.3309 5.95554ZM13.9633 14.0813C13.3399 11.9168 13.1205 9.25014 13.6321 5.98734L14.3374 6.09793C13.8402 9.26902 14.0577 11.8297 14.6493 13.8837L13.9633 14.0813ZM20.1141 21.919C18.6404 21.1125 15.3336 18.8341 13.9633 14.0814L14.6493 13.8837C15.947 18.3849 19.0748 20.5364 20.4568 21.2927L20.1141 21.919ZM20.2908 21.9628H20.2855V21.2489H20.2908V21.9628ZM20.6316 22.3725C20.4922 22.1812 20.32 22.0292 20.1189 21.9187L20.4627 21.293C20.7578 21.4552 21.0089 21.678 21.2086 21.9522L20.6316 22.3725ZM20.9063 23.0008C20.8621 22.7725 20.7701 22.5623 20.6318 22.3728L21.2085 21.9519C21.4078 22.2251 21.5429 22.5325 21.6072 22.8653L20.9063 23.0008ZM20.8894 23.6843C20.945 23.4657 20.9519 23.2369 20.9063 23.0008L21.6072 22.8653C21.6723 23.2018 21.6635 23.537 21.5813 23.8602L20.8894 23.6843ZM21.3207 23.4256L21.3221 23.426L21.1485 24.1185L21.1471 24.1181L21.3207 23.4256ZM20.5745 24.2926C20.7284 24.1056 20.8324 23.9011 20.8881 23.6834L21.5797 23.8604C21.4969 24.1838 21.3432 24.4819 21.1258 24.7462L20.5745 24.2926ZM20.2778 24.6655C20.3867 24.5251 20.4858 24.4008 20.5741 24.2931L21.1262 24.7457C21.0425 24.8479 20.9474 24.967 20.8421 25.1029L20.2778 24.6655ZM19.9889 25.0508C20.0963 24.9031 20.1933 24.7739 20.2784 24.6647L20.8415 25.1037C20.7624 25.2051 20.6702 25.3279 20.5663 25.4707L19.9889 25.0508ZM19.4054 25.5382C19.6343 25.4279 19.8326 25.264 19.9897 25.0497L20.5655 25.4719C20.3399 25.7795 20.0507 26.0197 19.7155 26.1813L19.4054 25.5382ZM18.6605 25.6898C18.9257 25.7006 19.1774 25.6478 19.4059 25.538L19.715 26.1815C19.3802 26.3424 19.0123 26.4187 18.6313 26.4031L18.6605 25.6898ZM18.2349 25.673L18.66 25.6898L18.6318 26.4031L18.2067 26.3864L18.2349 25.673ZM14.5412 25.2627C15.7491 25.5772 16.9833 25.6256 18.2343 25.673L18.2073 26.3864C16.9681 26.3395 15.6565 26.2908 14.3613 25.9535L14.5412 25.2627ZM12.1943 24.4109C13.0042 24.7459 13.7691 25.0616 14.5412 25.2627L14.3613 25.9536C13.5333 25.738 12.7223 25.4019 11.9215 25.0706L12.1943 24.4109ZM12.1923 24.41L12.1941 24.4108L11.9216 25.0707L11.9198 25.0699L12.1923 24.41ZM8.00393 23.4507C8.65445 23.3147 9.36785 23.4235 10.0677 23.622C10.7705 23.8213 11.5016 24.1242 12.1925 24.4101L11.9195 25.0698C11.2201 24.7803 10.5285 24.4948 9.87285 24.3088C9.21416 24.1219 8.63322 24.0485 8.15003 24.1495L8.00393 23.4507ZM6.4712 24.0008C6.95941 23.749 7.47921 23.5601 8.00409 23.4507L8.14986 24.1495C7.69239 24.245 7.2334 24.4109 6.7985 24.6353L6.4712 24.0008ZM5.12603 24.938C5.52529 24.5699 5.98305 24.2526 6.47119 24.0008L6.79851 24.6353C6.36498 24.8589 5.96031 25.1399 5.60994 25.4629L5.12603 24.938ZM4.73073 25.3473C4.85225 25.2077 4.98307 25.0689 5.12691 24.9372L5.60906 25.4637C5.49018 25.5726 5.37827 25.6908 5.26919 25.8161L4.73073 25.3473ZM4.31736 25.8563C4.45201 25.6826 4.58983 25.5096 4.73043 25.3476L5.26949 25.8157C5.14166 25.963 5.01318 26.124 4.88153 26.2938L4.31736 25.8563ZM3.98977 26.2872C4.07113 26.1783 4.15284 26.0699 4.31665 25.8572L4.88224 26.2928C4.72051 26.5028 4.64087 26.6085 4.5616 26.7146L3.98977 26.2872ZM2.77554 27.7604C3.21963 27.3132 3.59795 26.8099 3.99004 26.2868L4.56132 26.715C4.17381 27.232 3.76681 27.7754 3.28209 28.2634L2.77554 27.7604ZM4.39363 29.8885C3.80593 29.3783 3.25528 28.8202 2.75866 28.2452L3.29897 27.7786C3.77471 28.3294 4.30138 28.863 4.86166 29.3494L4.39363 29.8885ZM6.64965 31.4648C5.86693 31.0508 5.10395 30.5053 4.3936 29.8885L4.8617 29.3494C5.53993 29.9384 6.25835 30.4502 6.98343 30.8337L6.64965 31.4648ZM9.24501 32.0093C8.36627 32.0604 7.47877 31.9031 6.6497 31.4648L6.98338 30.8337C7.68425 31.2042 8.4395 31.341 9.2035 31.2966L9.24501 32.0093ZM12.2297 31.0926C11.2955 31.6059 10.2708 31.9491 9.24515 32.0093L9.20335 31.2966C10.101 31.2439 11.0232 30.941 11.8859 30.4669L12.2297 31.0926ZM13.5453 30.329C13.1252 30.5903 12.6855 30.8414 12.2302 31.0924L11.8855 30.4672C12.3354 30.2192 12.7631 29.9748 13.1683 29.7228L13.5453 30.329ZM14.7122 29.5254C14.3508 29.8059 13.9593 30.071 13.5456 30.3288L13.168 29.7229C13.5675 29.4739 13.9377 29.2228 14.2745 28.9614L14.7122 29.5254ZM15.6038 29.1974C15.2855 29.2116 14.9754 29.3213 14.7121 29.5255L14.2746 28.9613C14.6567 28.6651 15.1091 28.5049 15.5719 28.4842L15.6038 29.1974ZM16.5207 29.4453C16.238 29.2646 15.9203 29.1832 15.6038 29.1974L15.5718 28.4842C16.0342 28.4634 16.4975 28.5832 16.9052 28.8438L16.5207 29.4453ZM17.1309 30.1761C17.011 29.8815 16.803 29.626 16.5205 29.4452L16.9054 28.8439C17.3133 29.105 17.6172 29.4771 17.7922 29.907L17.1309 30.1761ZM17.203 31.1186C17.2787 30.7922 17.249 30.4671 17.1308 30.1759L17.7923 29.9073C17.9653 30.3336 18.0077 30.8088 17.8985 31.2798L17.203 31.1186ZM16.8802 32.9966C16.9538 32.3538 17.0618 31.7271 17.203 31.1185L17.8985 31.2799C17.7635 31.8614 17.6601 32.4613 17.5895 33.0778L16.8802 32.9966ZM16.7744 34.9038C16.7744 34.2465 16.8101 33.6105 16.8802 32.9967L17.5895 33.0777C17.5226 33.6634 17.4883 34.2724 17.4883 34.9038H16.7744ZM18.6017 42.468C17.4188 40.1494 16.7744 37.5599 16.7744 34.9038H17.4883C17.4883 37.4443 18.1047 39.9229 19.2377 42.1435L18.6017 42.468ZM23.6582 48.41C21.5076 46.8399 19.7875 44.7913 18.6018 42.468L19.2377 42.1435C20.3737 44.3694 22.0211 46.3308 24.0791 47.8334L23.6582 48.41ZM23.6716 48.42L23.6566 48.4089L24.0807 47.8346L24.0957 47.8456L23.6716 48.42ZM23.8893 48.4898H23.8836V47.7758H23.8893V48.4898ZM24.2775 49.2883C24.1858 48.9475 23.9818 48.6404 23.68 48.422L24.0987 47.8437C24.5366 48.1607 24.8337 48.6082 24.9669 49.1027L24.2775 49.2883ZM24.1908 50.3343C24.3446 49.9888 24.367 49.6216 24.2775 49.2881L24.9669 49.1029C25.0987 49.5933 25.0639 50.1285 24.843 50.6247L24.1908 50.3343ZM24.6985 50.1721L24.7003 50.1732L24.3335 50.7857L24.3317 50.7847L24.6985 50.1721ZM24.1912 50.3281L24.1958 50.3188L24.8344 50.638L24.8298 50.6473L24.1912 50.3281ZM24.3749 50.818L24.3699 50.8158L24.651 50.1596L24.656 50.1617L24.3749 50.818ZM23.8741 51.1347C23.968 50.8709 24.0729 50.6075 24.1891 50.3453L24.8418 50.6344C24.7329 50.8804 24.6346 51.1272 24.5468 51.3739L23.8741 51.1347ZM30.1275 64.694C27.9257 64.5026 26.2947 63.8592 25.127 62.8998C23.9577 61.9392 23.2806 60.6846 22.9481 59.3214C22.2877 56.614 22.9773 53.4479 23.8776 51.1253L24.5433 51.3834C23.6649 53.6492 23.0317 56.6516 23.6417 59.1522C23.9443 60.3931 24.5506 61.5024 25.5801 62.3482C26.6112 63.1952 28.0944 63.8006 30.1893 63.9828L30.1275 64.694ZM32.653 64.8492C31.867 64.8227 31.0262 64.7722 30.1275 64.694L30.1893 63.9828C31.0763 64.0599 31.9044 64.1097 32.677 64.1356L32.653 64.8492ZM32.457 64.7842C32.4492 64.7776 32.4414 64.7709 32.4336 64.7642L32.8963 64.2206C32.9044 64.2275 32.9125 64.2344 32.9206 64.2413L32.457 64.7842ZM33.6487 64.8854C33.3309 64.8854 33.0035 64.8804 32.677 64.8695L32.7007 64.156C33.0189 64.1666 33.3383 64.1715 33.6487 64.1715V64.8854Z" fill="white" mask="url(#path-1-inside-1_336_2078)"/>
<path d="M40.3872 40.7886C40.3619 40.7604 40.3312 40.7258 40.2955 40.6852C40.1845 40.559 40.0258 40.3752 39.8352 40.1449C39.4539 39.6842 38.9458 39.0384 38.4378 38.2976C37.9297 37.5565 37.4231 36.7225 37.044 35.8852C36.6642 35.0465 36.416 34.2127 36.416 33.4699C36.416 31.2792 38.1965 29.4987 40.3872 29.4987C42.5779 29.4987 44.3584 31.2792 44.3584 33.4699C44.3584 34.2127 44.1102 35.0465 43.7304 35.8852C43.3513 36.7225 42.8447 37.5565 42.3366 38.2976C41.8286 39.0384 41.3205 39.6842 40.9392 40.1449C40.7486 40.3752 40.5899 40.559 40.4789 40.6852C40.4432 40.7258 40.4125 40.7604 40.3872 40.7886ZM40.3872 31.9974C39.5771 31.9974 38.9147 32.6598 38.9147 33.4699C38.9147 33.8604 39.0699 34.2349 39.346 34.5111C39.6222 34.7872 39.9967 34.9423 40.3872 34.9423C40.7777 34.9423 41.1523 34.7872 41.4284 34.5111C41.7045 34.2349 41.8597 33.8604 41.8597 33.4699C41.8597 32.6598 41.1973 31.9974 40.3872 31.9974Z" fill="white" stroke="white" stroke-width="0.223102"/>
<path d="M26.613 41.1184C26.5878 41.0902 26.557 41.0556 26.5214 41.015C26.4104 40.8889 26.2516 40.705 26.061 40.4747C25.6798 40.014 25.1716 39.3682 24.6637 38.6274C24.1555 37.8863 23.649 37.0523 23.2698 36.215C22.89 35.3764 22.6418 34.5425 22.6418 33.7997C22.6418 31.609 24.4223 29.8285 26.613 29.8285C28.8037 29.8285 30.5842 31.609 30.5842 33.7997C30.5842 34.5425 30.336 35.3764 29.9562 36.215C29.5771 37.0523 29.0706 37.8863 28.5624 38.6274C28.0545 39.3682 27.5463 40.014 27.165 40.4747C26.9744 40.705 26.8157 40.8889 26.7047 41.015C26.669 41.0556 26.6383 41.0902 26.613 41.1184ZM26.613 32.3272C25.8029 32.3272 25.1406 32.9896 25.1406 33.7997C25.1406 34.1902 25.2957 34.5647 25.5718 34.8409C25.848 35.117 26.2225 35.2722 26.613 35.2722C27.0036 35.2722 27.3781 35.117 27.6542 34.8409C27.9304 34.5647 28.0855 34.1902 28.0855 33.7997C28.0855 32.9896 27.4231 32.3272 26.613 32.3272Z" fill="white" stroke="white" stroke-width="0.223102"/>
<path fill-rule="evenodd" clip-rule="evenodd" d="M22.1161 51.772C22.1161 51.2168 22.5661 50.7668 23.1213 50.7668C24.8188 50.7668 28.0805 51.4408 31.8554 53.1537C32.5197 53.4551 33.2021 53.7897 33.8968 54.1597C33.9737 54.0635 34.0698 53.9799 34.1832 53.9151C36.0372 52.8556 38.1425 52.0887 39.9892 51.6709C40.9135 51.4618 41.7947 51.3351 42.5643 51.3089C43.305 51.2836 44.0539 51.3463 44.6404 51.6069C45.1478 51.8324 45.3763 52.4265 45.1508 52.9339C44.9253 53.4412 44.3312 53.6697 43.8239 53.4442C43.6564 53.3698 43.2744 53.2964 42.6329 53.3183C42.0202 53.3392 41.2678 53.443 40.4329 53.6319C38.9869 53.959 37.3584 54.5264 35.8678 55.2892C36.5899 55.7331 37.3194 56.2157 38.0503 56.7395C40.8022 55.2752 43.1614 55.2853 44.5055 55.2911C44.5856 55.2914 44.6621 55.2917 44.7348 55.2917C45.29 55.2917 45.7401 55.7418 45.7401 56.297C45.7401 56.8522 45.29 57.3023 44.7348 57.3023C44.6643 57.3023 44.5915 57.3021 44.5166 57.3018C43.3893 57.2979 41.769 57.2924 39.8436 58.1088C41.246 59.2486 42.6361 60.5482 43.9723 62.025C44.3448 62.4367 44.313 63.0725 43.9013 63.4449C43.4896 63.8174 42.8539 63.7857 42.4814 63.374C38.7669 59.2685 34.6129 56.6128 31.0246 54.9846C27.4108 53.3448 24.4398 52.7773 23.1213 52.7773C22.5661 52.7773 22.1161 52.3272 22.1161 51.772ZM21.1108 55.1599C21.1108 54.6047 21.5609 54.1547 22.1161 54.1547C25.4175 54.1547 32.6242 55.5124 40.4538 64.1662C40.8263 64.5779 40.7946 65.2136 40.3829 65.5861C39.9712 65.9586 39.3354 65.9268 38.963 65.5151C31.5124 57.2802 24.8463 56.1652 22.1161 56.1652C21.5609 56.1652 21.1108 55.7151 21.1108 55.1599ZM20.6082 58.809C20.6082 58.2538 21.0582 57.8037 21.6134 57.8037H21.6339C23.1553 57.8037 25.0741 57.8036 27.453 58.7552C29.8297 59.7059 32.5867 61.5707 35.9213 65.1619C36.2991 65.5687 36.2755 66.2048 35.8687 66.5826C35.4619 66.9603 34.8258 66.9368 34.448 66.5299C31.2483 63.0841 28.7277 61.4305 26.7063 60.622C24.6978 59.8186 23.1046 59.8142 21.6134 59.8142C21.0582 59.8142 20.6082 59.3642 20.6082 58.809Z" fill="white"/>
</svg>
